<?xml version="1.0" encoding="utf-8"?>
<!-- Generator: Adobe Illustrator 25.2.1, SVG Export Plug-In . SVG Version: 6.00 Build 0)  -->
<svg version="1.1" id="Layer_1" xmlns="http://www.w3.org/2000/svg" xmlns:xlink="http://www.w3.org/1999/xlink" x="0px" y="0px"
	 viewBox="0 0 31.9 32" style="enable-background:new 0 0 31.9 32;" xml:space="preserve">
<style type="text/css">
	.st0{clip-path:url(#SVGID_2_);}
	.st1{fill:#FFFFFF;}
	.st2{fill:#FE4F2D;}
	.st3{fill:#091057;}
	.st4{fill:#0066FF;}
</style>
<g>
	<defs>
		<rect id="SVGID_1_" x="0.4" y="1.3" width="31" height="29.5"/>
	</defs>
	<clipPath id="SVGID_2_">
		<use xlink:href="#SVGID_1_"  style="overflow:visible;"/>
	</clipPath>
	<g class="st0">
		<g>
			<path class="st1" d="M-58.8,27.7h-3.4c-1.3,0-2.3-0.9-2.4-2.2l0-0.1l-0.1,0.5c-0.1,0.4-0.3,0.7-0.6,1c-0.4,0.5-1,0.8-1.6,0.8
				h-3.1c-0.4,0-1-0.1-1.6-0.7c-0.3-0.3-0.6-0.7-0.7-1.1l-0.1-0.5l0,0.1c-0.1,1.3-1.1,2.2-2.4,2.2h-3.4c-1.4,0-2.3-1-2.3-2.3
				c0-0.1,0-0.1,0-0.2l1.7-16.5c0,0,0,0,0,0c0.1-0.5,0.3-1,0.6-1.4c0.4-0.5,1.1-0.7,1.7-0.7h4.1c1.1,0,2,0.7,2.3,1.7l1.5,5l1.5-5
				c0,0,0-0.1,0-0.1c0.4-1,1.3-1.6,2.3-1.6h4.1c0.6,0,1.1,0.2,1.6,0.6c0.5,0.4,0.8,0.9,0.8,1.5c0.3,2.8,0.6,5.6,0.9,8.2
				c0.3,2.7,0.6,5.5,0.9,8.3c0,0.1,0,0.1,0,0.2v0.1C-56.5,26.8-57.4,27.7-58.8,27.7z M-68.3,25.1C-68.3,25.1-68.3,25.1-68.3,25.1
				C-68.3,25.1-68.3,25.1-68.3,25.1z M-61.1,24.1h0.8c-0.2-2.3-0.5-4.5-0.7-6.8c-0.3-2.3-0.5-4.7-0.7-7.2h-2.1l-1.6,5.2
				c0.3-0.6,1-1,1.7-0.9c0.9,0.1,1.6,0.7,1.7,1.6L-61.1,24.1z M-76.8,24.1h0.8l0.9-8c0.1-0.8,0.8-1.5,1.7-1.6
				c0.7-0.1,1.4,0.3,1.7,0.9l-1.6-5.2h-2.1L-76.8,24.1z M-69.1,24.1h1.1l1.3-4.5l-0.1,0.4c-0.2,0.8-0.9,1.3-1.7,1.3c0,0,0,0,0,0
				c-0.7,0-1.4-0.4-1.7-1.1L-69.1,24.1z M-73.5,9.4C-73.5,9.4-73.5,9.4-73.5,9.4L-73.5,9.4z"/>
			<path class="st1" d="M-49,28c-0.9,0-1.7-0.1-2.6-0.3c-0.8-0.2-1.6-0.5-2.3-1c-0.7-0.4-1.4-0.9-1.9-1.5c-0.6-0.6-1.1-1.2-1.5-1.9
				c-0.4-0.7-0.7-1.5-1-2.3c-0.2-0.8-0.3-1.7-0.3-2.6c0-1.3,0.3-2.6,0.8-3.8c0.5-1.1,1.2-2.2,2-3c0.9-0.9,1.9-1.5,3.1-2
				c1.2-0.5,2.4-0.7,3.8-0.7c0.6,0,1.3,0.1,1.8,0.2c0.6,0.1,1.1,0.3,1.6,0.6c0.1,0,0.1,0.1,0.2,0.1c0,0,0.1-0.1,0.1-0.1
				c0.3-0.3,0.7-0.5,1.1-0.6c0.2-0.1,0.5-0.1,0.8-0.1h1.8c0.2,0,0.4,0,0.7,0.1c0.4,0.1,0.8,0.3,1.2,0.6c0.3,0.3,0.6,0.6,0.7,0.9
				c0.1,0.3,0.2,0.7,0.2,1.1V25c0,0.4-0.1,0.7-0.2,1c-0.2,0.4-0.4,0.8-0.8,1c-0.3,0.3-0.7,0.4-1.1,0.5c-0.2,0-0.5,0.1-0.7,0.1H-44
				c-0.4,0-0.8-0.1-1.1-0.2c-0.2-0.1-0.4-0.2-0.6-0.4c-0.1,0-0.2,0.1-0.2,0.1c-0.4,0.2-0.9,0.4-1.4,0.5C-47.9,27.9-48.4,28-49,28z
				 M-43.1,24.7C-43.1,24.7-43.1,24.7-43.1,24.7C-43.1,24.7-43.1,24.7-43.1,24.7z M-49,12.5c-0.8,0-1.6,0.1-2.3,0.5
				c-0.7,0.3-1.4,0.7-1.9,1.3c-0.5,0.5-1,1.2-1.3,1.9c-0.3,0.7-0.5,1.5-0.5,2.3c0,0.6,0.1,1.1,0.2,1.6c0.1,0.5,0.3,1,0.6,1.4
				c0.3,0.4,0.6,0.8,0.9,1.2c0.4,0.4,0.8,0.7,1.2,0.9c0.4,0.3,0.9,0.5,1.4,0.6c0.5,0.1,1,0.2,1.6,0.2c0.3,0,0.5,0,0.7-0.1
				c0.3-0.1,0.5-0.2,0.7-0.3c0.2-0.1,0.4-0.2,0.6-0.4c0.1-0.1,0.2-0.2,0.3-0.3c-0.1,0-0.2,0.1-0.2,0.1c-0.7,0.3-1.4,0.4-2.2,0.4
				c-0.8,0-1.5-0.2-2.2-0.5c-0.6-0.3-1.2-0.7-1.7-1.2c-0.5-0.5-0.8-1.1-1.1-1.8c-0.2-0.6-0.4-1.3-0.4-2.1c0-0.7,0.1-1.4,0.3-2
				c0.2-0.7,0.6-1.3,1-1.8c0.5-0.5,1-1,1.7-1.3c0.7-0.3,1.4-0.5,2.2-0.5c0.8,0,1.5,0.2,2.2,0.5c0.1,0,0.2,0.1,0.2,0.1
				c0-0.1-0.1-0.1-0.2-0.1c-0.2-0.2-0.4-0.3-0.6-0.4c-0.2-0.1-0.5-0.2-0.8-0.3C-48.3,12.5-48.7,12.5-49,12.5z M-41.6,24.1
				L-41.6,24.1C-41.6,24.1-41.6,24.1-41.6,24.1z M-43.3,24.1h0.8V12.7h-0.2l-0.2,0.7c-0.2,0.7-0.8,1.1-1.5,1.2c-0.2,0-0.3,0-0.5,0
				c0.5,0.5,0.8,1.1,1.1,1.7c0.3,0.7,0.4,1.4,0.4,2.1c0,0.8-0.1,1.5-0.4,2.1c-0.3,0.7-0.7,1.3-1.2,1.8c-0.1,0.1-0.3,0.3-0.4,0.4
				c0.3-0.1,0.6-0.1,0.9,0c0.6,0.2,1.1,0.6,1.3,1.2L-43.3,24.1z M-49,16.5c-0.2,0-0.5,0-0.6,0.1c-0.2,0.1-0.4,0.2-0.5,0.4
				c-0.2,0.2-0.3,0.4-0.4,0.6c-0.1,0.3-0.1,0.5-0.1,0.8c0,0.3,0,0.6,0.1,0.9c0.1,0.2,0.2,0.4,0.3,0.6c0.1,0.1,0.3,0.3,0.5,0.4
				c0.2,0.1,0.4,0.1,0.7,0.1c0.3,0,0.5,0,0.8-0.1c0.2-0.1,0.5-0.2,0.6-0.4c0.2-0.2,0.3-0.4,0.4-0.6c0.1-0.2,0.1-0.5,0.1-0.8
				c0-0.3,0-0.5-0.1-0.8c-0.1-0.2-0.2-0.5-0.4-0.6c-0.2-0.2-0.4-0.3-0.6-0.4C-48.5,16.5-48.8,16.5-49,16.5z M-41.7,12.7
				C-41.7,12.7-41.7,12.7-41.7,12.7C-41.7,12.7-41.7,12.7-41.7,12.7L-41.7,12.7z"/>
			<path class="st1" d="M-23.2,27.7h-4c-0.6,0-1.1-0.2-1.6-0.6c-0.2-0.2-0.5-0.5-0.7-0.8l-1.9-2.7V25c0,0.2,0,0.4-0.1,0.6
				c-0.1,0.3-0.2,0.6-0.3,0.9c-0.2,0.3-0.5,0.6-0.8,0.8c-0.4,0.3-0.9,0.4-1.4,0.4h-3c-0.5,0-1-0.2-1.4-0.5c-0.3-0.2-0.5-0.5-0.7-0.7
				c-0.1-0.2-0.2-0.4-0.3-0.6c-0.1-0.2-0.1-0.4-0.1-0.7V7.4c0-0.2,0-0.3,0-0.5c0-0.4,0.2-0.9,0.5-1.2c0.3-0.4,0.7-0.6,1.1-0.8
				c0.3-0.1,0.7-0.2,1.1-0.2h2.9c0.4,0,0.9,0.1,1.2,0.3c0.3,0.2,0.6,0.4,0.9,0.7c0.2,0.3,0.4,0.6,0.4,0.9c0,0.2,0.1,0.4,0.1,0.6v4.1
				l1.1-1.2c0.5-0.6,1.3-0.9,2.1-0.9h3.7c1.6,0,2.5,1.2,2.5,2.3c0,0.4-0.1,0.7-0.2,1c-0.1,0.2-0.2,0.4-0.4,0.6c0,0,0,0.1-0.1,0.1
				l-3.8,4l5.2,6.6c0,0,0.1,0.1,0.1,0.2c0.1,0.2,0.3,0.4,0.3,0.6c0.1,0.3,0.2,0.6,0.2,1c0,0.8-0.3,1.5-0.9,1.9
				C-22.1,27.6-22.6,27.7-23.2,27.7z M-35.1,25C-35.1,25-35.1,25-35.1,25L-35.1,25z M-26.6,24.1h0.9l-4.7-6
				c-0.6-0.7-0.5-1.7,0.1-2.3l2.9-3.1h-0.4l-4.1,4.5c-0.5,0.6-1.3,0.7-2,0.5c-0.7-0.3-1.2-0.9-1.2-1.7V8.3H-36v15.9h1v-2.9
				c0-0.5,0.2-0.9,0.5-1.2l1.3-1.4c0.4-0.4,0.9-0.6,1.4-0.5c0.5,0,1,0.3,1.3,0.8L-26.6,24.1z M-27.6,12.5L-27.6,12.5
				C-27.6,12.5-27.6,12.5-27.6,12.5z M-36,7.1C-36,7.1-36,7.1-36,7.1C-36,7.1-36,7.1-36,7.1z"/>
			<path class="st1" d="M-17.5,27.7h-2.7c-1.6,0-2.7-1.1-2.7-2.7V12.3c0-0.6,0.2-1.2,0.6-1.7c0,0,0,0,0,0c-0.4-0.5-0.6-1.1-0.6-1.8
				V6.5c0-1,0.4-1.6,0.8-2c0.3-0.3,0.9-0.7,1.9-0.7h2.7c0.7,0,1.3,0.2,1.8,0.6c0.4,0.3,0.9,1,0.9,2.1v2.2c0,0.3-0.1,0.6-0.2,1
				c-0.1,0.3-0.3,0.5-0.4,0.7c0,0-0.1,0.1-0.1,0.1c0.1,0.1,0.2,0.3,0.3,0.5c0.2,0.4,0.4,0.8,0.4,1.3V25c0,1-0.4,1.6-0.8,2
				C-15.9,27.3-16.5,27.7-17.5,27.7z M-19.2,24.1h0.8v-11h-0.8V24.1z M-19.2,7.9h0.8V7.4h-0.8V7.9z"/>
			<path class="st1" d="M-0.1,27.7h-2.8c-0.8,0-1.4-0.2-1.9-0.6c-0.5-0.5-0.8-1.1-0.8-2v-7.7c0-0.1,0-0.1,0-0.2
				C-5.7,17.1-5.8,17-5.8,17c-0.1-0.1-0.2-0.2-0.3-0.2c-0.1,0-0.2-0.1-0.3-0.1c0,0-0.1,0-0.2,0c-0.1,0-0.2,0.1-0.3,0.2
				c-0.1,0.1-0.2,0.2-0.3,0.3c0,0.1-0.1,0.1-0.1,0.2V25c0,0.4-0.1,0.7-0.2,1C-7.7,26.6-8,27-8.4,27.2c0,0-0.1,0-0.1,0.1
				c-0.3,0.2-0.5,0.3-0.8,0.3c-0.2,0.1-0.5,0.1-0.8,0.1h-2.7c-1.1,0-1.7-0.5-2.1-0.8c-0.3-0.3-0.7-1-0.7-1.9V11.8
				c0-0.4,0.1-0.9,0.3-1.3c0.1-0.2,0.3-0.4,0.5-0.6c0.1-0.1,0.1-0.1,0.2-0.2c0.3-0.3,0.7-0.5,1.1-0.6c0.2,0,0.5-0.1,0.7-0.1h1.8
				c0.4,0,0.8,0.1,1.2,0.3c0.3,0.1,0.5,0.3,0.7,0.5c0,0,0,0,0,0c0.5-0.3,1.1-0.5,1.8-0.7C-6.6,9-5.9,8.9-5.1,8.9
				c1.2,0,2.3,0.2,3.2,0.7c0.9,0.5,1.8,1.1,2.4,1.9c0.6,0.8,1.1,1.7,1.5,2.7c0.3,1,0.5,2,0.5,3.1V25c0,0.7-0.2,1.4-0.6,1.8
				C1.4,27.4,0.7,27.7-0.1,27.7z M-1.9,24.1h0.9l0-6.8c0-0.7-0.1-1.4-0.3-2c-0.2-0.6-0.5-1.1-0.8-1.5c-0.3-0.4-0.7-0.7-1.2-0.9
				c-0.5-0.2-1-0.3-1.6-0.3c-0.5,0-0.9,0-1.3,0.1c-0.4,0.1-0.7,0.2-1,0.4c-0.2,0.1-0.3,0.2-0.5,0.3c1-0.3,2-0.3,3,0.1
				c0.5,0.2,1,0.5,1.4,0.9c0.4,0.4,0.8,0.8,1,1.3c0.3,0.6,0.4,1.2,0.4,1.8V24.1z M-11.9,24.1l1,0v-6.8c0,0,0-0.1,0-0.1
				c0-0.6,0.2-1.2,0.5-1.7c0.2-0.3,0.4-0.6,0.6-0.8c0,0-0.1,0-0.1,0c-0.8-0.1-1.4-0.6-1.6-1.4l-0.1-0.6h-0.2V24.1z"/>
		</g>
		<path d="M1.4,23.4v-1.8l0.8-0.1c1.3,3.1,4.5,5.3,8.1,5.3c3.6,0,6.7-2.2,8.1-5.3h1.7v1.9c0.9-0.1,8-0.7,9.5-1.5
			c1.7-0.8-0.8-0.8-0.7-3.1c0.1-2.3,0.1-1.4,0.1-2.3c0-0.9,2.7-2.8-3.1-7.4C20,4.6-1.5,2.9-1.5,2.9C-17.7-3.4-17-7.5-42.6-7.5
			c-15.7,0-26.7,6.8-31.2,8.4c-4.5,1.5-6.7,0.4-8.9,1c-2.3,0.6-1.4,4.8-1.6,6.6c-0.3,1.8-0.1,2.1-1.4,4.1c-1.3,2-1,2.4,0,6.2
			c0.2,0.7,5.1,2.8,5.8,3.2l0.2,0v1.6"/>
		<g>
			<path d="M10.2,28c-3.8,0-7.1-2.1-8.8-5.4c0,0-0.2-0.4-0.2-1l0-0.2h1.1l0.1,0.1c1.4,3.1,4.4,5.2,7.8,5.2s6.5-2,7.8-5.2l0.1-0.1
				h2.1v1.9c1.5-0.1,7.8-0.8,9.2-1.5c0.4-0.2,0.4-0.3,0.4-0.3c0-0.1-0.2-0.2-0.3-0.3c-0.4-0.4-1.1-1-1-2.3c0.1-1.5,0.1-1.6,0.1-1.8
				c0-0.1,0-0.2,0-0.5c0-0.2,0.1-0.5,0.2-0.7c0.5-1,1.4-2.9-3.2-6.5c-5.7-4.5-27-6.2-27.2-6.3l0,0l0,0C-5.9,1.5-9,0-11.7-1.4
				c-7.6-3.7-12.1-5.9-31-5.9C-55-7.3-64.5-3-70.2-0.5c-1.5,0.7-2.7,1.2-3.7,1.6c-2.2,0.8-3.8,0.8-5,0.8c-0.4,0-0.8,0-1.2,0
				c-0.3,0-0.7,0-1,0c-0.7,0-1.2,0.1-1.7,0.2c-1.5,0.4-1.4,2.7-1.4,4.5c0,0.7,0,1.4-0.1,1.9c0,0.3-0.1,0.6-0.1,0.8
				c-0.1,1.1-0.2,1.7-1.3,3.3c-1.1,1.7-1,2.2-0.2,5.2c0.1,0.3,0.1,0.5,0.2,0.8c0.2,0.4,3.1,1.8,4.3,2.4c0.7,0.3,1.2,0.6,1.4,0.7
				c0.2,0.1,0.3,0.3,0.3,0.5c0,0.2,0,0.4-0.2,0.5c-0.1,0.1-0.3,0.2-0.5,0.2c-0.1,0-0.2,0-0.3-0.1c-0.2-0.1-0.7-0.4-1.3-0.7
				c-2.6-1.3-4.8-2.4-5-3.2l-0.2-0.8c-0.8-3.1-1.1-4,0.4-6.3c0.9-1.4,0.9-1.7,1.1-2.8c0-0.3,0.1-0.5,0.1-0.8c0.1-0.4,0-1,0-1.7
				c0-2.2-0.1-5.1,2.4-5.8c0.6-0.2,1.2-0.2,2.1-0.2c0.3,0,0.7,0,1,0c0.4,0,0.8,0,1.2,0c1.1,0,2.6-0.1,4.6-0.8
				c0.9-0.3,2.1-0.8,3.6-1.5c5.8-2.6,15.4-6.9,28-6.9c19.1,0,23.8,2.3,31.5,6.1c2.7,1.3,5.7,2.8,9.9,4.4c2.4,0.2,22,2,27.8,6.5
				c5.4,4.3,4.2,6.9,3.6,8.1c0,0.1-0.1,0.2-0.1,0.2c0,0.2,0,0.2,0,0.3c0,0.3,0,0.4-0.1,1.9c0,0.6,0.2,0.9,0.6,1.2
				c0.3,0.3,0.8,0.8,0.7,1.5c-0.1,0.7-0.7,1.1-1.2,1.3c-1.7,0.8-8,1.4-9.9,1.6c0,0-0.1,0-0.1,0c-0.3,0-0.5-0.1-0.7-0.3
				c-0.2-0.2-0.4-0.5-0.4-0.8v-0.6C17.2,26.1,13.9,28,10.2,28z"/>
			<path class="st1" d="M-42.7-8.4c19.1,0,23.7,2.3,31.4,6C-8.6-1-5.5,0.4-1.3,2.1c2,0.2,21.9,1.9,27.7,6.5c5.3,4.2,4.1,6.6,3.5,7.8
				c0,0.1-0.1,0.2-0.1,0.3c0,0.2,0,0.3,0,0.4c0,0.2,0,0.3-0.1,1.9c0,0.7,0.3,1.1,0.7,1.4c0.3,0.3,0.7,0.7,0.6,1.3
				c-0.1,0.6-0.6,0.9-1,1.1c-1.6,0.8-7.9,1.4-9.8,1.6c0,0-0.1,0-0.1,0c-0.2,0-0.4-0.1-0.6-0.2c-0.2-0.2-0.3-0.4-0.3-0.6v-1h-0.3
				c-1.6,3.2-5,5.3-8.6,5.3c-3.7,0-7-2.1-8.6-5.3c0,0-0.2-0.3-0.1-0.9h0.7c1.3,3.1,4.5,5.3,8.1,5.3c3.6,0,6.7-2.2,8.1-5.3H20v1.9
				c0.9-0.1,8-0.7,9.5-1.5c1.7-0.8-0.8-0.8-0.7-3.1c0.1-2.3,0.1-1.4,0.1-2.3c0-0.9,2.7-2.8-3.1-7.4C20,4.6-1.5,2.9-1.5,2.9
				C-17.8-3.4-17-7.5-42.7-7.5c-15.7,0-26.7,6.8-31.2,8.4c-2.1,0.7-3.6,0.8-5,0.8c-0.8,0-1.5-0.1-2.2-0.1c-0.6,0-1.2,0-1.8,0.2
				c-2.3,0.6-1.4,4.8-1.6,6.6c-0.3,1.8-0.1,2.1-1.4,4.1c-1.3,2-1,2.4,0,6.2c0.2,0.7,5.1,2.8,5.8,3.2c0.2,0.1,0.3,0.4,0.1,0.6
				c0,0,0,0,0,0c-0.1,0.1-0.2,0.1-0.3,0.1c-0.1,0-0.2,0-0.2-0.1c-1-0.6-6-2.7-6.2-3.7l-0.2-0.8c-0.8-3.1-1-3.9,0.3-6.1
				c0.9-1.5,1-1.8,1.1-2.9c0-0.2,0.1-0.5,0.1-0.8c0.1-0.4,0.1-1,0-1.7c0-2.1-0.1-4.9,2.2-5.6c0.7-0.2,1.3-0.2,2-0.2c0.3,0,0.7,0,1,0
				c0.4,0,0.8,0,1.2,0c1.3,0,2.7-0.1,4.7-0.8c0.9-0.3,2.1-0.8,3.6-1.5C-64.9-4.1-55.3-8.4-42.7-8.4 M-42.7-8.9
				c-12.7,0-22.3,4.3-28.1,6.9c-1.5,0.7-2.7,1.2-3.6,1.5c-2,0.7-3.5,0.8-4.5,0.8c-0.4,0-0.8,0-1.2,0c-0.3,0-0.7,0-1,0
				c-0.8,0-1.5,0.1-2.1,0.3c-2.6,0.7-2.6,3.9-2.6,6.1c0,0.6,0,1.2,0,1.6c0,0.3-0.1,0.6-0.1,0.8c-0.1,1-0.2,1.3-1,2.7
				c-1.5,2.3-1.2,3.4-0.4,6.5l0.2,0.8c0.2,0.8,1.8,1.7,5.1,3.3c0.6,0.3,1.1,0.5,1.3,0.7c0.1,0.1,0.3,0.1,0.5,0.1
				c0.3,0,0.5-0.1,0.7-0.3c0.2-0.2,0.3-0.5,0.2-0.8c0-0.3-0.2-0.5-0.4-0.6c-0.2-0.1-0.7-0.4-1.4-0.7c-1.2-0.5-3.8-1.8-4.2-2.2
				c-0.1-0.3-0.1-0.5-0.2-0.8c-0.8-3-0.9-3.4,0.2-5c1.1-1.7,1.2-2.3,1.3-3.4c0-0.2,0.1-0.5,0.1-0.8c0.1-0.5,0.1-1.2,0.1-1.9
				c0-1.7-0.1-3.9,1.2-4.3c0.5-0.1,1-0.2,1.6-0.2c0.3,0,0.6,0,1,0c0.4,0,0.8,0,1.2,0c1.2,0,2.9-0.1,5.1-0.9c1-0.3,2.2-0.9,3.7-1.6
				C-64.4-2.8-55-7-42.7-7c18.8,0,23.3,2.2,30.9,5.9C-9.1,0.2-6,1.7-1.7,3.4l0.1,0l0.1,0c0.2,0,21.4,1.8,27.1,6.2
				c4.4,3.5,3.6,5.2,3.2,6.2c-0.1,0.3-0.3,0.5-0.3,0.8c0,0.3,0,0.4,0,0.5c0,0.2,0,0.2-0.1,1.7c-0.1,1.4,0.6,2,1.1,2.5
				c0,0,0.1,0.1,0.1,0.1c0,0-0.1,0.1-0.2,0.1c-1.1,0.6-5.9,1.1-8.8,1.4v-1.4v-0.5H20h-1.7H18l-0.1,0.3c-1.3,3.1-4.3,5-7.6,5
				c-3.3,0-6.3-2-7.6-5l-0.1-0.3H2.2H1.5H1l0,0.4c-0.1,0.6,0.1,1,0.2,1.1c1.7,3.4,5.2,5.6,9,5.6c3.4,0,6.6-1.7,8.4-4.5
				c0.1,0.3,0.2,0.6,0.4,0.8c0.2,0.2,0.6,0.4,0.9,0.4c0,0,0.1,0,0.1,0c2.5-0.2,8.3-0.8,10-1.6c0.5-0.3,1.2-0.7,1.3-1.5
				c0.1-0.9-0.4-1.4-0.8-1.7c-0.3-0.3-0.5-0.5-0.5-1c0.1-1.6,0.1-1.7,0.1-2c0,0,0-0.1,0-0.2c0-0.1,0.1-0.1,0.1-0.2
				c0.3-0.6,0.8-1.7,0.5-3.1c-0.4-1.7-1.7-3.4-4.1-5.3C20.8,3.6,1.3,1.8-1.2,1.6C-5.4,0-8.4-1.5-11-2.8C-18.8-6.6-23.5-8.9-42.7-8.9
				L-42.7-8.9z"/>
		</g>
		<g>
			<g>
				<g>
					<path class="st2" d="M-76.7,8.3c0-0.1,0.1-0.3,0.2-0.4c0.1-0.1,0.2-0.2,0.4-0.2h4.1c0.3,0,0.5,0.1,0.6,0.4l3.2,10.7L-65,8.3
						c0.1-0.3,0.3-0.4,0.6-0.4h4c0.1,0,0.3,0,0.4,0.1c0.1,0.1,0.2,0.2,0.2,0.4c0.3,2.8,0.6,5.5,0.8,8.2c0.3,2.7,0.6,5.5,0.8,8.2v0.1
						c0,0.3-0.2,0.5-0.5,0.5h-3.3c-0.4,0-0.6-0.2-0.6-0.5l-1-9.1l-2.7,9.2c0,0.1-0.1,0.2-0.2,0.3c-0.1,0.1-0.2,0.2-0.3,0.2h-3.1
						c-0.1,0-0.2-0.1-0.3-0.2c-0.1-0.1-0.2-0.2-0.2-0.3l-2.7-9.2l-1,9.1c0,0.3-0.2,0.5-0.6,0.5h-3.3c-0.3,0-0.5-0.2-0.5-0.5
						L-76.7,8.3z"/>
					<path d="M-58.6,27.1h-3.3c-1.3,0-2.3-0.9-2.4-2.2l0-0.1l-0.1,0.5c-0.1,0.4-0.3,0.7-0.6,1c-0.4,0.5-1,0.8-1.6,0.8h-3.1
						c-0.4,0-1-0.1-1.6-0.7c-0.3-0.3-0.6-0.7-0.7-1.1l-0.1-0.5l0,0.1c-0.1,1.3-1.1,2.2-2.4,2.2h-3.3c-1.3,0-2.3-1-2.3-2.3
						c0-0.1,0-0.1,0-0.2l1.7-16.5c0,0,0,0,0,0c0.1-0.5,0.3-1,0.6-1.4c0.4-0.5,1-0.7,1.7-0.7h4.1c1.1,0,2,0.7,2.3,1.7l1.5,5l1.5-5
						c0,0,0-0.1,0-0.1c0.4-1,1.2-1.6,2.3-1.6h4c0.6,0,1.1,0.2,1.6,0.6c0.5,0.4,0.7,0.9,0.8,1.5c0.3,2.8,0.6,5.6,0.8,8.2
						c0.3,2.7,0.6,5.5,0.8,8.3c0,0.1,0,0.1,0,0.2v0.1C-56.3,26.2-57.3,27.1-58.6,27.1z M-68,24.5C-68,24.5-68,24.5-68,24.5
						C-68,24.5-68,24.5-68,24.5z M-60.9,23.6h0.8c-0.2-2.3-0.5-4.5-0.7-6.8c-0.2-2.3-0.5-4.7-0.7-7.2h-2.1l-1.6,5.2
						c0.3-0.6,1-1,1.7-0.9c0.9,0.1,1.5,0.7,1.6,1.6L-60.9,23.6z M-76.4,23.6h0.8l0.9-8c0.1-0.8,0.8-1.5,1.6-1.6
						c0.7-0.1,1.3,0.3,1.7,0.9l-1.6-5.2H-75L-76.4,23.6z M-68.8,23.6h1.1l1.3-4.5l-0.1,0.4c-0.2,0.8-0.9,1.3-1.7,1.3c0,0,0,0,0,0
						c-0.7,0-1.4-0.4-1.6-1.1L-68.8,23.6z M-73.2,8.8C-73.2,8.8-73.2,8.8-73.2,8.8L-73.2,8.8z"/>
				</g>
				<g>
					<path class="st2" d="M-40.8,24.5c0,0.1,0,0.3-0.1,0.4c0,0.1-0.1,0.2-0.2,0.3c-0.1,0.1-0.2,0.1-0.3,0.2c-0.1,0-0.2,0-0.3,0H-44
						c-0.2,0-0.3,0-0.4-0.1c-0.1,0-0.2-0.1-0.2-0.2c-0.1-0.1-0.1-0.2-0.2-0.3c0-0.1-0.1-0.2-0.1-0.4l-0.2-0.5
						c-0.2,0.2-0.5,0.4-0.7,0.6c-0.3,0.2-0.6,0.4-0.9,0.5c-0.3,0.2-0.7,0.3-1.1,0.4c-0.4,0.1-0.8,0.1-1.2,0.1
						c-0.7,0-1.4-0.1-2.1-0.3c-0.7-0.2-1.3-0.4-1.8-0.8c-0.6-0.3-1.1-0.7-1.6-1.2c-0.5-0.5-0.9-1-1.2-1.6c-0.3-0.6-0.6-1.2-0.8-1.9
						c-0.2-0.7-0.3-1.4-0.3-2.1c0-1.1,0.2-2.1,0.6-3.1c0.4-0.9,0.9-1.8,1.6-2.5c0.7-0.7,1.5-1.2,2.4-1.6c0.9-0.4,1.9-0.6,3-0.6
						c0.5,0,0.9,0.1,1.4,0.2c0.4,0.1,0.8,0.3,1.2,0.4c0.4,0.2,0.7,0.4,1,0.7c0.3,0.3,0.5,0.5,0.7,0.9l0.3-1.1
						c0.1-0.2,0.1-0.4,0.2-0.5c0.1-0.1,0.1-0.2,0.2-0.3c0.1-0.1,0.1-0.1,0.2-0.1c0.1,0,0.2,0,0.4,0h1.8c0.1,0,0.2,0,0.3,0
						c0.1,0,0.2,0.1,0.3,0.2c0.1,0.1,0.2,0.2,0.2,0.3c0,0.1,0.1,0.2,0.1,0.4V24.5z M-52.4,17.9c0,0.5,0.1,1,0.2,1.5
						c0.2,0.5,0.4,0.8,0.7,1.2c0.3,0.3,0.7,0.6,1.1,0.8c0.4,0.2,0.9,0.3,1.4,0.3c0.5,0,1-0.1,1.5-0.3c0.5-0.2,0.8-0.5,1.2-0.8
						c0.3-0.3,0.6-0.7,0.8-1.2c0.2-0.5,0.3-0.9,0.3-1.5c0-0.5-0.1-1-0.3-1.4c-0.2-0.5-0.5-0.9-0.8-1.2c-0.3-0.3-0.7-0.6-1.2-0.8
						c-0.5-0.2-0.9-0.3-1.5-0.3c-0.5,0-1,0.1-1.4,0.3c-0.4,0.2-0.8,0.5-1.1,0.8c-0.3,0.3-0.5,0.7-0.7,1.2
						C-52.3,16.9-52.4,17.4-52.4,17.9z"/>
					<path d="M-48.9,27.4c-0.9,0-1.7-0.1-2.5-0.3c-0.8-0.2-1.6-0.5-2.3-1c-0.7-0.4-1.3-0.9-1.9-1.5c-0.6-0.6-1.1-1.2-1.5-1.9
						c-0.4-0.7-0.7-1.5-1-2.3c-0.2-0.8-0.3-1.7-0.3-2.6c0-1.3,0.3-2.6,0.7-3.8c0.5-1.1,1.2-2.2,2-3c0.9-0.9,1.9-1.5,3-2
						c1.2-0.5,2.4-0.7,3.7-0.7c0.6,0,1.2,0.1,1.8,0.2c0.6,0.1,1.1,0.3,1.6,0.6c0.1,0,0.1,0.1,0.2,0.1c0,0,0.1-0.1,0.1-0.1
						c0.3-0.3,0.7-0.5,1.1-0.6c0.2-0.1,0.5-0.1,0.8-0.1h1.8c0.2,0,0.4,0,0.7,0.1c0.4,0.1,0.8,0.3,1.1,0.6c0.3,0.3,0.5,0.6,0.7,0.9
						c0.1,0.3,0.2,0.7,0.2,1.1v13.3c0,0.4-0.1,0.7-0.2,1c-0.2,0.4-0.4,0.8-0.8,1c-0.3,0.3-0.7,0.4-1.1,0.5c-0.2,0-0.5,0.1-0.7,0.1
						H-44c-0.4,0-0.8-0.1-1.1-0.2c-0.2-0.1-0.4-0.2-0.6-0.4c-0.1,0-0.1,0.1-0.2,0.1c-0.4,0.2-0.9,0.4-1.4,0.5
						C-47.8,27.3-48.4,27.4-48.9,27.4z M-43.1,24.2C-43.1,24.2-43.1,24.2-43.1,24.2C-43.1,24.2-43.1,24.2-43.1,24.2z M-48.9,11.9
						c-0.8,0-1.6,0.1-2.3,0.5c-0.7,0.3-1.3,0.7-1.9,1.3c-0.5,0.5-0.9,1.2-1.3,1.9c-0.3,0.7-0.5,1.5-0.5,2.3c0,0.6,0.1,1.1,0.2,1.6
						c0.1,0.5,0.3,1,0.6,1.4c0.3,0.4,0.6,0.8,0.9,1.2c0.4,0.4,0.8,0.7,1.2,0.9c0.4,0.3,0.9,0.5,1.4,0.6c0.5,0.1,1,0.2,1.6,0.2
						c0.2,0,0.5,0,0.7-0.1c0.3-0.1,0.5-0.2,0.7-0.3c0.2-0.1,0.4-0.2,0.6-0.4c0.1-0.1,0.2-0.2,0.3-0.3c-0.1,0-0.2,0.1-0.2,0.1
						c-0.7,0.3-1.4,0.4-2.2,0.4c-0.8,0-1.5-0.2-2.1-0.5c-0.6-0.3-1.2-0.7-1.7-1.2c-0.5-0.5-0.8-1.1-1-1.8c-0.2-0.6-0.3-1.3-0.3-2.1
						c0-0.7,0.1-1.4,0.3-2c0.2-0.7,0.6-1.3,1-1.8c0.5-0.5,1-1,1.7-1.3c0.7-0.3,1.4-0.5,2.2-0.5c0.8,0,1.5,0.2,2.2,0.5
						c0.1,0,0.2,0.1,0.2,0.1c0-0.1-0.1-0.1-0.2-0.1c-0.2-0.2-0.4-0.3-0.6-0.4c-0.2-0.1-0.5-0.2-0.8-0.3
						C-48.3,12-48.6,11.9-48.9,11.9z M-41.7,23.6L-41.7,23.6C-41.7,23.6-41.7,23.6-41.7,23.6z M-43.3,23.6h0.8V12.1h-0.2l-0.2,0.7
						c-0.2,0.7-0.8,1.1-1.4,1.2c-0.2,0-0.3,0-0.5,0c0.5,0.5,0.8,1.1,1.1,1.7c0.3,0.7,0.4,1.4,0.4,2.1c0,0.8-0.1,1.5-0.4,2.1
						c-0.3,0.7-0.7,1.3-1.2,1.8c-0.1,0.1-0.3,0.3-0.4,0.4c0.3-0.1,0.6-0.1,0.8,0c0.6,0.2,1.1,0.6,1.3,1.2L-43.3,23.6z M-49,15.9
						c-0.2,0-0.4,0-0.6,0.1c-0.2,0.1-0.4,0.2-0.5,0.4c-0.2,0.2-0.3,0.4-0.4,0.6c-0.1,0.3-0.1,0.5-0.1,0.8c0,0.3,0,0.6,0.1,0.9
						c0.1,0.2,0.2,0.4,0.3,0.6c0.1,0.1,0.3,0.3,0.5,0.4c0.2,0.1,0.4,0.1,0.7,0.1c0.3,0,0.5,0,0.8-0.1c0.2-0.1,0.4-0.2,0.6-0.4
						c0.2-0.2,0.3-0.4,0.4-0.6c0.1-0.2,0.1-0.5,0.1-0.8c0-0.3,0-0.5-0.1-0.8c-0.1-0.2-0.2-0.5-0.4-0.6c-0.2-0.2-0.4-0.3-0.6-0.4
						C-48.5,15.9-48.7,15.9-49,15.9z M-41.7,12.1C-41.7,12.1-41.7,12.1-41.7,12.1C-41.7,12.1-41.7,12.1-41.7,12.1L-41.7,12.1z"/>
				</g>
				<g>
					<path class="st2" d="M-37.9,6.8c0-0.1,0-0.3,0-0.4c0-0.1,0-0.2,0.1-0.3c0.1-0.1,0.2-0.1,0.3-0.2c0.1,0,0.3-0.1,0.5-0.1h2.8
						c0.1,0,0.3,0,0.4,0.1c0.1,0.1,0.2,0.1,0.2,0.2c0.1,0.1,0.1,0.2,0.1,0.3c0,0.1,0,0.2,0,0.3v8.7l4.2-4.7c0.2-0.2,0.4-0.3,0.7-0.3
						h3.6c0.4,0,0.6,0.2,0.6,0.5c0,0.1,0,0.2,0,0.2c0,0.1-0.1,0.1-0.2,0.2l-4.9,5.1l6.1,7.8h0c0.1,0.1,0.2,0.2,0.2,0.3
						c0,0.1,0.1,0.2,0.1,0.3c0,0.2,0,0.3-0.1,0.4c-0.1,0.1-0.2,0.1-0.4,0.1h-4c-0.1,0-0.3-0.1-0.4-0.2c-0.1-0.1-0.2-0.3-0.4-0.5
						l-3.9-5.5l-1.3,1.4v3.8c0,0.1,0,0.1,0,0.2c0,0.1-0.1,0.2-0.1,0.3c-0.1,0.1-0.1,0.2-0.2,0.3c-0.1,0.1-0.2,0.1-0.4,0.1h-3
						c-0.1,0-0.3,0-0.4-0.1c-0.1-0.1-0.2-0.2-0.2-0.3c-0.1-0.1-0.1-0.2-0.1-0.3c0-0.1,0-0.1,0-0.1V6.8z"/>
					<path d="M-23.5,27.1h-4c-0.6,0-1.1-0.2-1.6-0.6c-0.2-0.2-0.5-0.5-0.7-0.8l-1.9-2.7v1.4c0,0.2,0,0.4-0.1,0.6
						c-0.1,0.3-0.2,0.6-0.3,0.9c-0.2,0.3-0.4,0.6-0.8,0.8c-0.4,0.3-0.9,0.4-1.4,0.4h-3c-0.5,0-1-0.2-1.4-0.5
						c-0.3-0.2-0.5-0.5-0.7-0.7c-0.1-0.2-0.2-0.4-0.3-0.6c-0.1-0.2-0.1-0.4-0.1-0.7V6.8c0-0.2,0-0.3,0-0.5c0-0.4,0.2-0.9,0.5-1.2
						c0.3-0.4,0.7-0.6,1.1-0.8c0.3-0.1,0.7-0.2,1.1-0.2h2.8c0.4,0,0.8,0.1,1.2,0.3c0.3,0.2,0.6,0.4,0.8,0.7c0.2,0.3,0.4,0.6,0.4,0.9
						c0,0.2,0.1,0.4,0.1,0.6v4.1l1.1-1.2c0.5-0.6,1.3-0.9,2.1-0.9h3.6c1.6,0,2.4,1.2,2.4,2.3c0,0.4-0.1,0.7-0.2,1
						c-0.1,0.2-0.2,0.4-0.4,0.6c0,0,0,0.1-0.1,0.1l-3.8,4l5.2,6.6c0,0,0.1,0.1,0.1,0.2c0.1,0.2,0.3,0.4,0.3,0.6
						c0.1,0.3,0.2,0.6,0.2,1c0,0.8-0.3,1.5-0.9,1.9C-22.4,27-22.9,27.1-23.5,27.1z M-35.2,24.4C-35.2,24.4-35.2,24.4-35.2,24.4
						L-35.2,24.4z M-26.9,23.6h0.9l-4.7-6c-0.5-0.7-0.5-1.7,0.1-2.3l2.9-3.1h-0.4l-4,4.5c-0.5,0.6-1.3,0.7-2,0.5
						c-0.7-0.3-1.2-0.9-1.2-1.7V7.7h-0.9v15.9h0.9v-2.9c0-0.5,0.2-0.9,0.5-1.2l1.3-1.4c0.4-0.4,0.9-0.6,1.4-0.5c0.5,0,1,0.3,1.3,0.8
						L-26.9,23.6z M-27.9,11.9L-27.9,11.9C-27.9,11.9-27.9,11.9-27.9,11.9z M-36.1,6.6C-36.1,6.6-36.1,6.6-36.1,6.6
						C-36.1,6.6-36.1,6.6-36.1,6.6z"/>
				</g>
				<g>
					<path class="st2" d="M-21.3,5.9c0-0.3,0.1-0.5,0.2-0.7C-21,5.1-20.8,5-20.5,5h2.7c0.3,0,0.5,0.1,0.6,0.2
						c0.2,0.1,0.2,0.4,0.2,0.7v2.2c0,0.1,0,0.2-0.1,0.3c0,0.1-0.1,0.2-0.2,0.3c-0.1,0.1-0.2,0.2-0.3,0.2c-0.1,0.1-0.2,0.1-0.4,0.1
						h-2.7c-0.6,0-0.8-0.3-0.8-1V5.9z M-21.3,11.7c0-0.2,0.1-0.5,0.2-0.6c0.1-0.2,0.4-0.3,0.6-0.3h2.6c0.1,0,0.2,0,0.3,0.1
						c0.1,0,0.2,0.1,0.3,0.2c0.1,0.1,0.2,0.2,0.2,0.3c0.1,0.1,0.1,0.2,0.1,0.4v12.8c0,0.3-0.1,0.5-0.2,0.7c-0.2,0.1-0.4,0.2-0.7,0.2
						h-2.6c-0.6,0-0.8-0.3-0.8-0.9V11.7z"/>
					<path d="M-17.8,27.1h-2.6c-1.6,0-2.6-1.1-2.6-2.7V11.7c0-0.6,0.2-1.2,0.6-1.7c0,0,0,0,0,0c-0.4-0.5-0.6-1.1-0.6-1.8V5.9
						c0-1,0.4-1.6,0.7-2c0.3-0.3,0.9-0.7,1.9-0.7h2.7c0.7,0,1.3,0.2,1.8,0.6c0.4,0.3,0.9,1,0.9,2.1v2.2c0,0.3-0.1,0.6-0.2,1
						c-0.1,0.3-0.2,0.5-0.4,0.7c0,0-0.1,0.1-0.1,0.1c0.1,0.1,0.2,0.3,0.3,0.5c0.2,0.4,0.4,0.8,0.4,1.3v12.8c0,1-0.4,1.6-0.8,2
						C-16.3,26.8-16.9,27.1-17.8,27.1z M-19.5,23.6h0.8v-11h-0.8V23.6z M-19.5,7.3h0.8V6.8h-0.8V7.3z"/>
				</g>
				<g>
					<path class="st2" d="M-13.8,10.6c0.1-0.1,0.2-0.1,0.3-0.2c0.1,0,0.2,0,0.3,0h1.8c0.1,0,0.3,0,0.4,0.1c0.1,0.1,0.2,0.1,0.3,0.2
						c0.1,0.1,0.1,0.2,0.2,0.3c0,0.1,0.1,0.2,0.1,0.3l0.2,1c0.1-0.2,0.3-0.5,0.6-0.8c0.3-0.3,0.6-0.5,1-0.7c0.4-0.2,0.8-0.4,1.4-0.5
						c0.5-0.1,1.1-0.2,1.7-0.2c0.9,0,1.7,0.2,2.4,0.5c0.7,0.3,1.3,0.8,1.8,1.4c0.5,0.6,0.9,1.3,1.1,2.1C0,15,0.1,15.8,0.1,16.7v7.7
						c0,0.3-0.1,0.5-0.2,0.7c-0.1,0.2-0.3,0.2-0.6,0.2h-2.7c-0.3,0-0.6-0.1-0.7-0.2c-0.1-0.1-0.2-0.3-0.2-0.7v-7.7
						c0-0.3-0.1-0.7-0.2-1c-0.2-0.3-0.4-0.6-0.6-0.8c-0.3-0.2-0.5-0.4-0.9-0.5c-0.3-0.1-0.6-0.2-1-0.2c-0.3,0-0.6,0.1-0.9,0.2
						c-0.3,0.1-0.6,0.3-0.8,0.5c-0.2,0.2-0.5,0.5-0.6,0.8c-0.2,0.3-0.3,0.6-0.3,1v7.7c0,0.1,0,0.3-0.1,0.4c-0.1,0.1-0.1,0.2-0.2,0.3
						c-0.1,0.1-0.2,0.1-0.3,0.1c-0.1,0-0.2,0-0.3,0h-2.7c-0.3,0-0.6-0.1-0.7-0.2c-0.1-0.2-0.2-0.4-0.2-0.7V11.2c0-0.1,0-0.3,0.1-0.4
						C-14,10.7-13.9,10.6-13.8,10.6L-13.8,10.6z"/>
					<path d="M-0.7,27.1h-2.7c-0.8,0-1.4-0.2-1.9-0.6c-0.5-0.5-0.8-1.1-0.8-2v-7.7c0-0.1,0-0.1,0-0.2c-0.1-0.1-0.1-0.2-0.2-0.3
						c-0.1-0.1-0.2-0.2-0.3-0.2c-0.1,0-0.2-0.1-0.3-0.1c0,0-0.1,0-0.2,0c-0.1,0-0.2,0.1-0.3,0.2c-0.1,0.1-0.2,0.2-0.3,0.3
						c0,0.1-0.1,0.1-0.1,0.2v7.6c0,0.4-0.1,0.7-0.2,1c-0.2,0.5-0.5,0.9-0.9,1.1c0,0-0.1,0-0.1,0.1c-0.3,0.2-0.5,0.3-0.8,0.3
						c-0.2,0.1-0.5,0.1-0.8,0.1h-2.7c-1.1,0-1.7-0.5-2.1-0.8c-0.3-0.3-0.7-1-0.7-1.9V11.2c0-0.4,0.1-0.9,0.3-1.3
						c0.1-0.2,0.3-0.4,0.4-0.6c0.1-0.1,0.1-0.1,0.2-0.2c0.3-0.3,0.7-0.5,1.1-0.6c0.2,0,0.5-0.1,0.7-0.1h1.8c0.4,0,0.8,0.1,1.2,0.3
						C-10,9-9.7,9.1-9.6,9.3c0,0,0,0,0,0C-9,9-8.4,8.8-7.8,8.6c0.7-0.2,1.4-0.3,2.2-0.3c1.2,0,2.2,0.2,3.2,0.7
						c0.9,0.5,1.7,1.1,2.4,1.9c0.6,0.8,1.1,1.7,1.4,2.7c0.3,1,0.5,2,0.5,3.1v7.7c0,0.7-0.2,1.4-0.6,1.8C0.8,26.8,0.1,27.1-0.7,27.1z
						 M-2.5,23.6h0.8l0-6.8c0-0.7-0.1-1.4-0.3-2c-0.2-0.6-0.4-1.1-0.8-1.5c-0.3-0.4-0.7-0.7-1.2-0.9c-0.5-0.2-1-0.3-1.6-0.3
						c-0.5,0-0.9,0-1.2,0.1c-0.4,0.1-0.7,0.2-1,0.4c-0.2,0.1-0.3,0.2-0.5,0.3c1-0.3,2-0.3,2.9,0.1c0.5,0.2,1,0.5,1.4,0.9
						c0.4,0.4,0.7,0.8,1,1.3c0.3,0.6,0.4,1.2,0.4,1.8V23.6z M-12.3,23.6l0.9,0v-6.8c0,0,0-0.1,0-0.1c0-0.6,0.2-1.2,0.5-1.7
						c0.2-0.3,0.4-0.6,0.6-0.8c0,0-0.1,0-0.1,0c-0.8-0.1-1.4-0.6-1.5-1.4l-0.1-0.6h-0.2V23.6z"/>
				</g>
			</g>
			<g>
				<g>
					<path class="st2" d="M-76.7,8.3c0-0.1,0.1-0.3,0.2-0.4c0.1-0.1,0.2-0.2,0.4-0.2h4.1c0.3,0,0.5,0.1,0.6,0.4l3.2,10.7L-65,8.3
						c0.1-0.3,0.3-0.4,0.6-0.4h4c0.1,0,0.3,0,0.4,0.1c0.1,0.1,0.2,0.2,0.2,0.4c0.3,2.8,0.6,5.5,0.8,8.2c0.3,2.7,0.6,5.5,0.8,8.2v0.1
						c0,0.3-0.2,0.5-0.5,0.5h-3.3c-0.4,0-0.6-0.2-0.6-0.5l-1-9.1l-2.7,9.2c0,0.1-0.1,0.2-0.2,0.3c-0.1,0.1-0.2,0.2-0.3,0.2h-3.1
						c-0.1,0-0.2-0.1-0.3-0.2c-0.1-0.1-0.2-0.2-0.2-0.3l-2.7-9.2l-1,9.1c0,0.3-0.2,0.5-0.6,0.5h-3.3c-0.3,0-0.5-0.2-0.5-0.5
						L-76.7,8.3z"/>
				</g>
				<g>
					<path class="st2" d="M-40.8,24.5c0,0.1,0,0.3-0.1,0.4c0,0.1-0.1,0.2-0.2,0.3c-0.1,0.1-0.2,0.1-0.3,0.2c-0.1,0-0.2,0-0.3,0H-44
						c-0.2,0-0.3,0-0.4-0.1c-0.1,0-0.2-0.1-0.2-0.2c-0.1-0.1-0.1-0.2-0.2-0.3c0-0.1-0.1-0.2-0.1-0.4l-0.2-0.5
						c-0.2,0.2-0.5,0.4-0.7,0.6c-0.3,0.2-0.6,0.4-0.9,0.5c-0.3,0.2-0.7,0.3-1.1,0.4c-0.4,0.1-0.8,0.1-1.2,0.1
						c-0.7,0-1.4-0.1-2.1-0.3c-0.7-0.2-1.3-0.4-1.8-0.8c-0.6-0.3-1.1-0.7-1.6-1.2c-0.5-0.5-0.9-1-1.2-1.6c-0.3-0.6-0.6-1.2-0.8-1.9
						c-0.2-0.7-0.3-1.4-0.3-2.1c0-1.1,0.2-2.1,0.6-3.1c0.4-0.9,0.9-1.8,1.6-2.5c0.7-0.7,1.5-1.2,2.4-1.6c0.9-0.4,1.9-0.6,3-0.6
						c0.5,0,0.9,0.1,1.4,0.2c0.4,0.1,0.8,0.3,1.2,0.4c0.4,0.2,0.7,0.4,1,0.7c0.3,0.3,0.5,0.5,0.7,0.9l0.3-1.1
						c0.1-0.2,0.1-0.4,0.2-0.5c0.1-0.1,0.1-0.2,0.2-0.3c0.1-0.1,0.1-0.1,0.2-0.1c0.1,0,0.2,0,0.4,0h1.8c0.1,0,0.2,0,0.3,0
						c0.1,0,0.2,0.1,0.3,0.2c0.1,0.1,0.2,0.2,0.2,0.3c0,0.1,0.1,0.2,0.1,0.4V24.5z M-52.4,17.9c0,0.5,0.1,1,0.2,1.5
						c0.2,0.5,0.4,0.8,0.7,1.2c0.3,0.3,0.7,0.6,1.1,0.8c0.4,0.2,0.9,0.3,1.4,0.3c0.5,0,1-0.1,1.5-0.3c0.5-0.2,0.8-0.5,1.2-0.8
						c0.3-0.3,0.6-0.7,0.8-1.2c0.2-0.5,0.3-0.9,0.3-1.5c0-0.5-0.1-1-0.3-1.4c-0.2-0.5-0.5-0.9-0.8-1.2c-0.3-0.3-0.7-0.6-1.2-0.8
						c-0.5-0.2-0.9-0.3-1.5-0.3c-0.5,0-1,0.1-1.4,0.3c-0.4,0.2-0.8,0.5-1.1,0.8c-0.3,0.3-0.5,0.7-0.7,1.2
						C-52.3,16.9-52.4,17.4-52.4,17.9z"/>
				</g>
				<g>
					<path class="st2" d="M-37.9,6.8c0-0.1,0-0.3,0-0.4c0-0.1,0-0.2,0.1-0.3c0.1-0.1,0.2-0.1,0.3-0.2c0.1,0,0.3-0.1,0.5-0.1h2.8
						c0.1,0,0.3,0,0.4,0.1c0.1,0.1,0.2,0.1,0.2,0.2c0.1,0.1,0.1,0.2,0.1,0.3c0,0.1,0,0.2,0,0.3v8.7l4.2-4.7c0.2-0.2,0.4-0.3,0.7-0.3
						h3.6c0.4,0,0.6,0.2,0.6,0.5c0,0.1,0,0.2,0,0.2c0,0.1-0.1,0.1-0.2,0.2l-4.9,5.1l6.1,7.8h0c0.1,0.1,0.2,0.2,0.2,0.3
						c0,0.1,0.1,0.2,0.1,0.3c0,0.2,0,0.3-0.1,0.4c-0.1,0.1-0.2,0.1-0.4,0.1h-4c-0.1,0-0.3-0.1-0.4-0.2c-0.1-0.1-0.2-0.3-0.4-0.5
						l-3.9-5.5l-1.3,1.4v3.8c0,0.1,0,0.1,0,0.2c0,0.1-0.1,0.2-0.1,0.3c-0.1,0.1-0.1,0.2-0.2,0.3c-0.1,0.1-0.2,0.1-0.4,0.1h-3
						c-0.1,0-0.3,0-0.4-0.1c-0.1-0.1-0.2-0.2-0.2-0.3c-0.1-0.1-0.1-0.2-0.1-0.3c0-0.1,0-0.1,0-0.1V6.8z"/>
				</g>
				<g>
					<path class="st2" d="M-21.3,5.9c0-0.3,0.1-0.5,0.2-0.7C-21,5.1-20.8,5-20.5,5h2.7c0.3,0,0.5,0.1,0.6,0.2
						c0.2,0.1,0.2,0.4,0.2,0.7v2.2c0,0.1,0,0.2-0.1,0.3c0,0.1-0.1,0.2-0.2,0.3c-0.1,0.1-0.2,0.2-0.3,0.2c-0.1,0.1-0.2,0.1-0.4,0.1
						h-2.7c-0.6,0-0.8-0.3-0.8-1V5.9z M-21.3,11.7c0-0.2,0.1-0.5,0.2-0.6c0.1-0.2,0.4-0.3,0.6-0.3h2.6c0.1,0,0.2,0,0.3,0.1
						c0.1,0,0.2,0.1,0.3,0.2c0.1,0.1,0.2,0.2,0.2,0.3c0.1,0.1,0.1,0.2,0.1,0.4v12.8c0,0.3-0.1,0.5-0.2,0.7c-0.2,0.1-0.4,0.2-0.7,0.2
						h-2.6c-0.6,0-0.8-0.3-0.8-0.9V11.7z"/>
				</g>
				<g>
					<path class="st2" d="M-13.8,10.6c0.1-0.1,0.2-0.1,0.3-0.2c0.1,0,0.2,0,0.3,0h1.8c0.1,0,0.3,0,0.4,0.1c0.1,0.1,0.2,0.1,0.3,0.2
						c0.1,0.1,0.1,0.2,0.2,0.3c0,0.1,0.1,0.2,0.1,0.3l0.2,1c0.1-0.2,0.3-0.5,0.6-0.8c0.3-0.3,0.6-0.5,1-0.7c0.4-0.2,0.8-0.4,1.4-0.5
						c0.5-0.1,1.1-0.2,1.7-0.2c0.9,0,1.7,0.2,2.4,0.5c0.7,0.3,1.3,0.8,1.8,1.4c0.5,0.6,0.9,1.3,1.1,2.1C0,15,0.1,15.8,0.1,16.7v7.7
						c0,0.3-0.1,0.5-0.2,0.7c-0.1,0.2-0.3,0.2-0.6,0.2h-2.7c-0.3,0-0.6-0.1-0.7-0.2c-0.1-0.1-0.2-0.3-0.2-0.7v-7.7
						c0-0.3-0.1-0.7-0.2-1c-0.2-0.3-0.4-0.6-0.6-0.8c-0.3-0.2-0.5-0.4-0.9-0.5c-0.3-0.1-0.6-0.2-1-0.2c-0.3,0-0.6,0.1-0.9,0.2
						c-0.3,0.1-0.6,0.3-0.8,0.5c-0.2,0.2-0.5,0.5-0.6,0.8c-0.2,0.3-0.3,0.6-0.3,1v7.7c0,0.1,0,0.3-0.1,0.4c-0.1,0.1-0.1,0.2-0.2,0.3
						c-0.1,0.1-0.2,0.1-0.3,0.1c-0.1,0-0.2,0-0.3,0h-2.7c-0.3,0-0.6-0.1-0.7-0.2c-0.1-0.2-0.2-0.4-0.2-0.7V11.2c0-0.1,0-0.3,0.1-0.4
						C-14,10.7-13.9,10.6-13.8,10.6L-13.8,10.6z"/>
				</g>
				<g>
					<path class="st2" d="M2.5,17.9c0-0.7,0.1-1.4,0.3-2.1c0.2-0.7,0.4-1.3,0.8-1.9c0.3-0.6,0.7-1.1,1.2-1.6c0.5-0.5,1-0.9,1.6-1.2
						c0.6-0.3,1.2-0.6,1.9-0.8c0.7-0.2,1.4-0.3,2.1-0.3c1.1,0,2.1,0.2,3,0.6c0.9,0.4,1.8,0.9,2.5,1.6c0.7,0.7,1.2,1.5,1.7,2.5
						c0.4,0.9,0.6,2,0.6,3.1c0,0.7-0.1,1.4-0.3,2.1c-0.2,0.7-0.4,1.3-0.8,1.9c-0.3,0.6-0.7,1.1-1.2,1.6c-0.5,0.5-1,0.9-1.6,1.2
						c-0.6,0.3-1.2,0.6-1.8,0.8c-0.7,0.2-1.3,0.3-2.1,0.3c-0.7,0-1.4-0.1-2.1-0.3c-0.7-0.2-1.3-0.4-1.9-0.8
						c-0.6-0.3-1.1-0.7-1.6-1.2c-0.5-0.5-0.9-1-1.2-1.6c-0.3-0.6-0.6-1.2-0.8-1.9C2.6,19.3,2.5,18.6,2.5,17.9z M6.8,17.9
						c0,0.5,0.1,1,0.2,1.5c0.2,0.5,0.4,0.8,0.7,1.2c0.3,0.3,0.7,0.6,1.1,0.8c0.4,0.2,0.9,0.3,1.4,0.3c0.5,0,1-0.1,1.4-0.3
						c0.4-0.2,0.8-0.5,1.1-0.8c0.3-0.3,0.5-0.7,0.7-1.2c0.2-0.5,0.2-0.9,0.2-1.5c0-0.5-0.1-1-0.2-1.4c-0.2-0.5-0.4-0.9-0.7-1.2
						c-0.3-0.3-0.6-0.6-1.1-0.8c-0.4-0.2-0.9-0.3-1.4-0.3c-0.5,0-1,0.1-1.4,0.3c-0.4,0.2-0.8,0.5-1.1,0.8C7.4,15.6,7.2,16,7,16.4
						C6.9,16.9,6.8,17.4,6.8,17.9z"/>
				</g>
			</g>
		</g>
		<g>
			<path class="st1" d="M-36.5-5.8c0.5,0,1,0.1,1.5,0.1c9.4,0.9,18.5,4.1,26.5,9.1c-7.9,0.6-16,0.8-24.1,0.5L-36.5-5.8z"/>
			<ellipse class="st1" cx="-54.3" cy="4.6" rx="2.4" ry="0.6"/>
			<path class="st1" d="M-62.8-2c7.5-2.8,15.5-4.2,23.5-4c0.4,1.9,1.6,7.6,2,9.6C-45.2,3.2-53,2.2-60.7,0.8C-61.4-0.1-62-1.1-62.8-2
				z"/>
			<path class="st1" d="M24.9,16.6c0-0.1,0-0.3,0-0.4l3.2-0.2c-0.1,0.2-0.2,0.5-0.2,0.7c0,0.2,0,0.3,0,0.4
				C27.4,17.1,26,16.8,24.9,16.6z"/>
			<path class="st1" d="M28.2,16c-0.7-0.1-2.2-0.4-3.2-0.5c0-0.1,0-0.2,0.1-0.3l3.3-0.2c0,0-1.6-0.3-2.9-0.5
				c0.3-0.4,0.9-0.5,1.4-0.6c0.5-0.1,1.1-0.1,1.6-0.2c0.4,1,0.1,1.6-0.2,2.1C28.3,15.9,28.2,15.9,28.2,16z"/>
			<path class="st1" d="M27.9,19.6c0,0-1.3-0.2-2.5-0.4c-0.1-0.2-0.2-0.4-0.3-0.6l2.9-0.1c0,0.2,0,0.4,0,0.6c0,0.7,0.1,1.2,0.3,1.6
				c-0.9-0.2-1.7-0.4-2.4-1L27.9,19.6z"/>
			<path class="st1" d="M25.4,10.1c0.3,0.4,0.6,0.7,0.8,1.1c-3.9,0.2-7.9-1.5-10.6-4.3c0.6,0,1.3,0,1.9,0c3.3,0.8,6.1,1.9,7.7,3.1
				C25.3,10.1,25.3,10.1,25.4,10.1z"/>
			<path class="st1" d="M28,17.3c0,0.1,0,0.2,0,1.1c-0.5-0.1-1.9-0.3-3-0.5c0-0.2,0-0.3,0-0.5L28,17.3C28,17.3,28,17.3,28,17.3z"/>
			<path class="st1" d="M-26.2,5.9c0,0.3-1.1,0.6-2.4,0.6c-1.3,0-2.4-0.3-2.4-0.6c0-0.3,1.1-0.6,2.4-0.6
				C-27.3,5.3-26.2,5.5-26.2,5.9z"/>
			<path class="st1" d="M-7.8,2.1c-2.1-0.7-4-1.9-6-2.9c-2.2-1.2-4.5-2.4-6.8-3.4c3.1,0.9,5.6,2.2,8.5,3.6c2.1,1,4.4,2.1,7.3,3.4
				C-5.8,2.6-6.8,2.4-7.8,2.1z"/>
			<path class="st1" d="M25.3,10.1c-1.6-1.3-4.5-2.3-7.7-3.1c2.2,0.2,4.4,0.8,6.3,2c0.5,0.3,1,0.8,1.5,1.2
				C25.3,10.1,25.3,10.1,25.3,10.1z"/>
			<path class="st1" d="M-83.9,3.8c0.6-0.2,1.3-0.2,1.9-0.1c1.1,0.2,2.1,0.9,2.6,1.9c0.1,0.2-0.2,0.4-0.3,0.6
				c-0.2,0.2-0.4,0.3-0.7,0.3c-0.7,0.1-1.6-0.2-2-0.7c-0.4-0.5-1-0.6-1.7-0.6C-84,4.7-84,4.2-83.9,3.8z"/>
			<path class="st1" d="M10.2,8.5c5.1,0,9.5,4.4,9.2,9.5c-0.4-7.8-9.7-11.7-15.4-6.3c-1.7,1.6-2.7,3.9-2.9,6.3c0,0,0,0,0,0
				C0.7,12.8,5.1,8.4,10.2,8.5z"/>
		</g>
	</g>
	<g class="st0">
		<path class="st1" d="M1.4,23.4v-1.8l0.8-0.1c1.3,3.1,4.5,5.3,8.1,5.3c3.6,0,6.7-2.2,8.1-5.3h1.7v1.9c0.9-0.1,8-0.7,9.5-1.5
			c1.7-0.8-0.8-0.8-0.7-3.1c0.1-2.3,0.1-1.4,0.1-2.3c0-0.9,2.7-2.8-3.1-7.4C20,4.6-1.5,2.9-1.5,2.9C-17.7-3.4-17-7.5-42.6-7.5
			c-15.7,0-26.7,6.8-31.2,8.4c-4.5,1.5-6.7,0.4-8.9,1c-2.3,0.6-1.4,4.8-1.6,6.6c-0.3,1.8-0.1,2.1-1.4,4.1c-1.3,2-1,2.4,0,6.2
			c0.2,0.7,5.1,2.8,5.8,3.2l0.2,0v1.6"/>
	</g>
	<g class="st0">
		<g>
			<path class="st3" d="M10.2,28c-3.8,0-7.1-2.1-8.8-5.4c0,0-0.2-0.4-0.2-1l0-0.2h1.1l0.1,0.1c1.4,3.1,4.4,5.2,7.8,5.2
				s6.5-2,7.8-5.2l0.1-0.1h2.1v1.9c1.5-0.1,7.8-0.8,9.2-1.5c0.4-0.2,0.4-0.3,0.4-0.3c0-0.1-0.2-0.2-0.3-0.3c-0.4-0.4-1.1-1-1-2.3
				c0.1-1.5,0.1-1.6,0.1-1.8c0-0.1,0-0.2,0-0.5c0-0.2,0.1-0.5,0.2-0.7c0.5-1,1.4-2.9-3.2-6.5c-5.7-4.5-27-6.2-27.2-6.3l0,0l0,0
				C-5.9,1.5-9,0-11.7-1.4c-7.6-3.7-12.1-5.9-31-5.9C-55-7.3-64.5-3-70.2-0.5c-1.5,0.7-2.7,1.2-3.7,1.6c-2.2,0.8-3.8,0.8-5,0.8
				c-0.4,0-0.8,0-1.2,0c-0.3,0-0.7,0-1,0c-0.7,0-1.2,0.1-1.7,0.2c-1.5,0.4-1.4,2.7-1.4,4.5c0,0.7,0,1.4-0.1,1.9
				c0,0.3-0.1,0.6-0.1,0.8c-0.1,1.1-0.2,1.7-1.3,3.3c-1.1,1.7-1,2.2-0.2,5.2c0.1,0.3,0.1,0.5,0.2,0.8c0.2,0.4,3.1,1.8,4.3,2.4
				c0.7,0.3,1.2,0.6,1.4,0.7c0.2,0.1,0.3,0.3,0.3,0.5c0,0.2,0,0.4-0.2,0.5c-0.1,0.1-0.3,0.2-0.5,0.2c-0.1,0-0.2,0-0.3-0.1
				c-0.2-0.1-0.7-0.4-1.3-0.7c-2.6-1.3-4.8-2.4-5-3.2l-0.2-0.8c-0.8-3.1-1.1-4,0.4-6.3c0.9-1.4,0.9-1.7,1.1-2.8
				c0-0.3,0.1-0.5,0.1-0.8c0.1-0.4,0-1,0-1.7c0-2.2-0.1-5.1,2.4-5.8c0.6-0.2,1.2-0.2,2.1-0.2c0.3,0,0.7,0,1,0c0.4,0,0.8,0,1.2,0
				c1.1,0,2.6-0.1,4.6-0.8c0.9-0.3,2.1-0.8,3.6-1.5c5.8-2.6,15.4-6.9,28-6.9c19.1,0,23.8,2.3,31.5,6.1c2.7,1.3,5.7,2.8,9.9,4.4
				c2.4,0.2,22,2,27.8,6.5c5.4,4.3,4.2,6.9,3.6,8.1c0,0.1-0.1,0.2-0.1,0.2c0,0.2,0,0.2,0,0.3c0,0.3,0,0.4-0.1,1.9
				c0,0.6,0.2,0.9,0.6,1.2c0.3,0.3,0.8,0.8,0.7,1.5c-0.1,0.7-0.7,1.1-1.2,1.3c-1.7,0.8-8,1.4-9.9,1.6c0,0-0.1,0-0.1,0
				c-0.3,0-0.5-0.1-0.7-0.3c-0.2-0.2-0.4-0.5-0.4-0.8v-0.6C17.2,26.1,13.9,28,10.2,28z"/>
		</g>
		<g>
			<g>
				<path class="st1" d="M-42.7-8.4c19.1,0,23.7,2.3,31.4,6C-8.6-1-5.5,0.4-1.3,2.1c2,0.2,21.9,1.9,27.7,6.5
					c5.3,4.2,4.1,6.6,3.5,7.8c0,0.1-0.1,0.2-0.1,0.3c0,0.2,0,0.3,0,0.4c0,0.2,0,0.3-0.1,1.9c0,0.7,0.3,1.1,0.7,1.4
					c0.3,0.3,0.7,0.7,0.6,1.3c-0.1,0.6-0.6,0.9-1,1.1c-1.6,0.8-7.9,1.4-9.8,1.6c0,0-0.1,0-0.1,0c-0.2,0-0.4-0.1-0.6-0.2
					c-0.2-0.2-0.3-0.4-0.3-0.6v-1h-0.3c-1.6,3.2-5,5.3-8.6,5.3c-3.7,0-7-2.1-8.6-5.3c0,0-0.2-0.3-0.1-0.9h0.7
					c1.3,3.1,4.5,5.3,8.1,5.3c3.6,0,6.7-2.2,8.1-5.3H20v1.9c0.9-0.1,8-0.7,9.5-1.5c1.7-0.8-0.8-0.8-0.7-3.1c0.1-2.3,0.1-1.4,0.1-2.3
					c0-0.9,2.7-2.8-3.1-7.4C20,4.6-1.5,2.9-1.5,2.9C-17.8-3.4-17-7.5-42.7-7.5c-15.7,0-26.7,6.8-31.2,8.4c-2.1,0.7-3.6,0.8-5,0.8
					c-0.8,0-1.5-0.1-2.2-0.1c-0.6,0-1.2,0-1.8,0.2c-2.3,0.6-1.4,4.8-1.6,6.6c-0.3,1.8-0.1,2.1-1.4,4.1c-1.3,2-1,2.4,0,6.2
					c0.2,0.7,5.1,2.8,5.8,3.2c0.2,0.1,0.3,0.4,0.1,0.6c0,0,0,0,0,0c-0.1,0.1-0.2,0.1-0.3,0.1c-0.1,0-0.2,0-0.2-0.1
					c-1-0.6-6-2.7-6.2-3.7l-0.2-0.8c-0.8-3.1-1-3.9,0.3-6.1c0.9-1.5,1-1.8,1.1-2.9c0-0.2,0.1-0.5,0.1-0.8c0.1-0.4,0.1-1,0-1.7
					c0-2.1-0.1-4.9,2.2-5.6c0.7-0.2,1.3-0.2,2-0.2c0.3,0,0.7,0,1,0c0.4,0,0.8,0,1.2,0c1.3,0,2.7-0.1,4.7-0.8
					c0.9-0.3,2.1-0.8,3.6-1.5C-64.9-4.1-55.3-8.4-42.7-8.4 M-42.7-8.9c-12.7,0-22.3,4.3-28.1,6.9c-1.5,0.7-2.7,1.2-3.6,1.5
					c-2,0.7-3.5,0.8-4.5,0.8c-0.4,0-0.8,0-1.2,0c-0.3,0-0.7,0-1,0c-0.8,0-1.5,0.1-2.1,0.3c-2.6,0.7-2.6,3.9-2.6,6.1
					c0,0.6,0,1.2,0,1.6c0,0.3-0.1,0.6-0.1,0.8c-0.1,1-0.2,1.3-1,2.7c-1.5,2.3-1.2,3.4-0.4,6.5l0.2,0.8c0.2,0.8,1.8,1.7,5.1,3.3
					c0.6,0.3,1.1,0.5,1.3,0.7c0.1,0.1,0.3,0.1,0.5,0.1c0.3,0,0.5-0.1,0.7-0.3c0.2-0.2,0.3-0.5,0.2-0.8c0-0.3-0.2-0.5-0.4-0.6
					c-0.2-0.1-0.7-0.4-1.4-0.7c-1.2-0.5-3.8-1.8-4.2-2.2c-0.1-0.3-0.1-0.5-0.2-0.8c-0.8-3-0.9-3.4,0.2-5c1.1-1.7,1.2-2.3,1.3-3.4
					c0-0.2,0.1-0.5,0.1-0.8c0.1-0.5,0.1-1.2,0.1-1.9c0-1.7-0.1-3.9,1.2-4.3c0.5-0.1,1-0.2,1.6-0.2c0.3,0,0.6,0,1,0
					c0.4,0,0.8,0,1.2,0c1.2,0,2.9-0.1,5.1-0.9c1-0.3,2.2-0.9,3.7-1.6C-64.4-2.8-55-7-42.7-7c18.8,0,23.3,2.2,30.9,5.9
					C-9.1,0.2-6,1.7-1.7,3.4l0.1,0l0.1,0c0.2,0,21.4,1.8,27.1,6.2c4.4,3.5,3.6,5.2,3.2,6.2c-0.1,0.3-0.3,0.5-0.3,0.8
					c0,0.3,0,0.4,0,0.5c0,0.2,0,0.2-0.1,1.7c-0.1,1.4,0.6,2,1.1,2.5c0,0,0.1,0.1,0.1,0.1c0,0-0.1,0.1-0.2,0.1
					c-1.1,0.6-5.9,1.1-8.8,1.4v-1.4v-0.5H20h-1.7H18l-0.1,0.3c-1.3,3.1-4.3,5-7.6,5s-6.3-2-7.6-5l-0.1-0.3H2.2H1.5H1l0,0.4
					c-0.1,0.6,0.1,1,0.2,1.1c1.7,3.4,5.2,5.6,9,5.6c3.4,0,6.6-1.7,8.4-4.5c0.1,0.3,0.2,0.6,0.4,0.8c0.2,0.2,0.6,0.4,0.9,0.4
					c0,0,0.1,0,0.1,0c2.5-0.2,8.3-0.8,10-1.6c0.5-0.3,1.2-0.7,1.3-1.5c0.1-0.9-0.4-1.4-0.8-1.7c-0.3-0.3-0.5-0.5-0.5-1
					c0.1-1.6,0.1-1.7,0.1-2c0,0,0-0.1,0-0.2c0-0.1,0.1-0.1,0.1-0.2c0.3-0.6,0.8-1.7,0.5-3.1c-0.4-1.7-1.7-3.4-4.1-5.3
					C20.8,3.6,1.3,1.8-1.2,1.6C-5.4,0-8.4-1.5-11-2.8C-18.8-6.6-23.5-8.9-42.7-8.9L-42.7-8.9z"/>
			</g>
		</g>
	</g>
	<g class="st0">
		<g>
			<path class="st2" d="M-76.7,8.3c0-0.1,0.1-0.3,0.2-0.4c0.1-0.1,0.2-0.2,0.4-0.2h4.1c0.3,0,0.5,0.1,0.6,0.4l3.2,10.7L-65,8.3
				c0.1-0.3,0.3-0.4,0.6-0.4h4c0.1,0,0.3,0,0.4,0.1c0.1,0.1,0.2,0.2,0.2,0.4c0.3,2.8,0.6,5.5,0.8,8.2c0.3,2.7,0.6,5.5,0.8,8.2v0.1
				c0,0.3-0.2,0.5-0.5,0.5h-3.3c-0.4,0-0.6-0.2-0.6-0.5l-1-9.1l-2.7,9.2c0,0.1-0.1,0.2-0.2,0.3c-0.1,0.1-0.2,0.2-0.3,0.2h-3.1
				c-0.1,0-0.2-0.1-0.3-0.2c-0.1-0.1-0.2-0.2-0.2-0.3l-2.7-9.2l-1,9.1c0,0.3-0.2,0.5-0.6,0.5h-3.3c-0.3,0-0.5-0.2-0.5-0.5L-76.7,8.3
				z"/>
			<path class="st1" d="M-58.6,27.2h-3.3c-1.3,0-2.3-0.9-2.4-2.2l0,0l-0.1,0.4c-0.1,0.4-0.3,0.7-0.6,1c-0.4,0.5-1,0.8-1.6,0.8h-3.1
				c-0.4,0-1-0.1-1.6-0.7c-0.4-0.4-0.6-0.8-0.7-1.1l-0.1-0.3l0,0c-0.1,1.3-1.1,2.2-2.4,2.2h-3.3c-1.3,0-2.3-1-2.3-2.3
				c0-0.1,0-0.1,0-0.2l1.7-16.5c0,0,0,0,0,0c0.1-0.5,0.3-1,0.6-1.4c0.4-0.5,1.1-0.7,1.7-0.7h4.1c1.1,0,2,0.7,2.3,1.8l1.5,4.9
				l1.5-4.9c0,0,0-0.1,0-0.1c0.4-1,1.3-1.6,2.3-1.6h4c0.6,0,1.1,0.2,1.6,0.6c0.5,0.4,0.8,1,0.8,1.6c0.3,2.8,0.6,5.6,0.8,8.2
				c0.3,2.7,0.6,5.5,0.8,8.3c0,0.1,0,0.1,0,0.2v0.1C-56.3,26.2-57.3,27.2-58.6,27.2z M-68.4,24.7C-68.4,24.7-68.4,24.7-68.4,24.7
				C-68.4,24.7-68.4,24.7-68.4,24.7z M-68,24.5C-68,24.5-68,24.5-68,24.5C-68,24.5-68,24.5-68,24.5z M-60.8,23.5h0.8
				c-0.2-2.3-0.5-4.5-0.7-6.8c-0.2-2.3-0.5-4.7-0.7-7.1h-2l-1.5,5c0.4-0.5,1-0.8,1.6-0.8c0.9,0.1,1.6,0.7,1.7,1.6L-60.8,23.5z
				 M-76.4,23.5h0.8l0.9-8c0.1-0.9,0.8-1.5,1.7-1.6c0.6-0.1,1.3,0.2,1.6,0.7l-1.5-5h-2L-76.4,23.5z M-68.7,23.5h1l1.1-3.6
				c-0.3,0.6-0.9,0.9-1.6,0.9c0,0,0,0,0,0c-0.6,0-1.2-0.3-1.5-0.9L-68.7,23.5z M-73.2,8.8C-73.2,8.8-73.2,8.8-73.2,8.8L-73.2,8.8z"
				/>
		</g>
		<g>
			<path class="st2" d="M-40.8,24.5c0,0.1,0,0.3-0.1,0.4c0,0.1-0.1,0.2-0.2,0.3c-0.1,0.1-0.2,0.1-0.3,0.2c-0.1,0-0.2,0-0.3,0H-44
				c-0.2,0-0.3,0-0.4-0.1c-0.1,0-0.2-0.1-0.2-0.2c-0.1-0.1-0.1-0.2-0.2-0.3c0-0.1-0.1-0.2-0.1-0.4l-0.2-0.5
				c-0.2,0.2-0.5,0.4-0.7,0.6c-0.3,0.2-0.6,0.4-0.9,0.5c-0.3,0.2-0.7,0.3-1.1,0.4c-0.4,0.1-0.8,0.1-1.2,0.1c-0.7,0-1.4-0.1-2.1-0.3
				c-0.7-0.2-1.3-0.4-1.8-0.8c-0.6-0.3-1.1-0.7-1.6-1.2c-0.5-0.5-0.9-1-1.2-1.6c-0.3-0.6-0.6-1.2-0.8-1.9c-0.2-0.7-0.3-1.4-0.3-2.1
				c0-1.1,0.2-2.1,0.6-3.1c0.4-0.9,0.9-1.8,1.6-2.5c0.7-0.7,1.5-1.2,2.4-1.6c0.9-0.4,1.9-0.6,3-0.6c0.5,0,0.9,0.1,1.4,0.2
				c0.4,0.1,0.8,0.3,1.2,0.4c0.4,0.2,0.7,0.4,1,0.7c0.3,0.3,0.5,0.5,0.7,0.9l0.3-1.1c0.1-0.2,0.1-0.4,0.2-0.5
				c0.1-0.1,0.1-0.2,0.2-0.3c0.1-0.1,0.1-0.1,0.2-0.1c0.1,0,0.2,0,0.4,0h1.8c0.1,0,0.2,0,0.3,0c0.1,0,0.2,0.1,0.3,0.2
				c0.1,0.1,0.2,0.2,0.2,0.3c0,0.1,0.1,0.2,0.1,0.4V24.5z M-52.4,17.9c0,0.5,0.1,1,0.2,1.5c0.2,0.5,0.4,0.8,0.7,1.2
				c0.3,0.3,0.7,0.6,1.1,0.8c0.4,0.2,0.9,0.3,1.4,0.3c0.5,0,1-0.1,1.5-0.3c0.5-0.2,0.8-0.5,1.2-0.8c0.3-0.3,0.6-0.7,0.8-1.2
				c0.2-0.5,0.3-0.9,0.3-1.5c0-0.5-0.1-1-0.3-1.4c-0.2-0.5-0.5-0.9-0.8-1.2c-0.3-0.3-0.7-0.6-1.2-0.8c-0.5-0.2-0.9-0.3-1.5-0.3
				c-0.5,0-1,0.1-1.4,0.3c-0.4,0.2-0.8,0.5-1.1,0.8c-0.3,0.3-0.5,0.7-0.7,1.2C-52.3,16.9-52.4,17.4-52.4,17.9z"/>
			<path class="st1" d="M-48.9,27.4c-0.9,0-1.7-0.1-2.5-0.3c-0.8-0.2-1.6-0.5-2.3-1c-0.7-0.4-1.4-0.9-1.9-1.5
				c-0.6-0.6-1.1-1.2-1.5-1.9c-0.4-0.7-0.7-1.5-1-2.3c-0.2-0.8-0.3-1.7-0.3-2.6c0-1.3,0.3-2.6,0.7-3.8c0.5-1.1,1.2-2.2,2-3
				c0.9-0.9,1.9-1.5,3-2c1.2-0.5,2.4-0.7,3.7-0.7c0.6,0,1.3,0.1,1.8,0.2c0.6,0.1,1.1,0.4,1.6,0.6c0.1,0,0.1,0.1,0.2,0.1
				c0,0,0,0,0.1-0.1c0.3-0.3,0.7-0.5,1.1-0.6c0.2-0.1,0.5-0.1,0.8-0.1h1.8c0.2,0,0.4,0,0.7,0.1c0.4,0.1,0.8,0.3,1.1,0.6
				c0.3,0.3,0.6,0.6,0.7,0.9c0.1,0.3,0.2,0.7,0.2,1.1v13.3c0,0.4-0.1,0.7-0.2,1c-0.2,0.4-0.4,0.8-0.8,1.1c-0.3,0.3-0.7,0.4-1.1,0.5
				c-0.2,0-0.5,0.1-0.7,0.1H-44c-0.4,0-0.8-0.1-1.1-0.2c-0.2-0.1-0.4-0.2-0.6-0.4c-0.1,0-0.1,0.1-0.2,0.1c-0.4,0.2-0.9,0.4-1.4,0.5
				C-47.8,27.4-48.4,27.4-48.9,27.4z M-43.1,24.2C-43.1,24.2-43.1,24.2-43.1,24.2C-43.1,24.2-43.1,24.2-43.1,24.2z M-48.9,11.9
				c-0.8,0-1.6,0.1-2.3,0.5c-0.7,0.3-1.3,0.7-1.9,1.2c-0.5,0.5-0.9,1.2-1.3,1.9c-0.3,0.7-0.5,1.5-0.5,2.3c0,0.6,0.1,1.1,0.2,1.6
				c0.1,0.5,0.3,1,0.6,1.4c0.3,0.4,0.6,0.8,0.9,1.2c0.4,0.4,0.7,0.7,1.2,0.9c0.4,0.3,0.9,0.5,1.4,0.6c0.5,0.1,1,0.2,1.6,0.2
				c0.2,0,0.5,0,0.7-0.1c0.3-0.1,0.5-0.2,0.7-0.3c0.2-0.1,0.4-0.2,0.6-0.4c0.1-0.1,0.1-0.1,0.2-0.2c0,0,0,0-0.1,0
				c-0.7,0.3-1.4,0.4-2.2,0.4c-0.8,0-1.5-0.2-2.2-0.5c-0.6-0.3-1.2-0.7-1.7-1.2c-0.5-0.5-0.8-1.1-1.1-1.8c-0.2-0.6-0.3-1.3-0.3-2.1
				c0-0.7,0.1-1.4,0.3-2c0.2-0.7,0.6-1.3,1-1.8c0.5-0.5,1-1,1.7-1.3c0.7-0.3,1.4-0.5,2.2-0.5c0.8,0,1.5,0.2,2.2,0.5c0,0,0.1,0,0.1,0
				c0,0,0,0,0,0c-0.2-0.2-0.4-0.3-0.6-0.4c-0.2-0.1-0.5-0.2-0.8-0.3C-48.3,12-48.6,11.9-48.9,11.9z M-41.7,23.5L-41.7,23.5
				C-41.7,23.5-41.7,23.5-41.7,23.5z M-43.3,23.5h0.7V12.1h-0.2l-0.2,0.7c-0.2,0.7-0.8,1.1-1.5,1.2c-0.2,0-0.3,0-0.4,0
				c0.4,0.5,0.8,1,1,1.7c0.3,0.7,0.4,1.4,0.4,2.1c0,0.8-0.1,1.5-0.4,2.2c-0.3,0.7-0.7,1.3-1.2,1.8c-0.1,0.1-0.2,0.2-0.4,0.3
				c0.2,0,0.5,0,0.8,0c0.6,0.2,1.1,0.6,1.3,1.3L-43.3,23.5z M-49,15.9c-0.2,0-0.4,0-0.6,0.1c-0.2,0.1-0.4,0.2-0.5,0.4
				c-0.2,0.2-0.3,0.4-0.4,0.6c-0.1,0.3-0.1,0.5-0.1,0.8c0,0.3,0,0.6,0.1,0.8c0.1,0.2,0.2,0.4,0.3,0.6c0.1,0.1,0.3,0.3,0.5,0.4
				c0.2,0.1,0.4,0.1,0.6,0.1c0.3,0,0.5,0,0.8-0.1c0.2-0.1,0.4-0.2,0.6-0.4c0.2-0.2,0.3-0.4,0.4-0.6c0.1-0.2,0.1-0.5,0.1-0.8
				c0-0.3,0-0.5-0.1-0.7c-0.1-0.2-0.2-0.5-0.4-0.6c-0.2-0.2-0.4-0.3-0.6-0.4C-48.5,16-48.7,15.9-49,15.9z M-41.7,12.1
				C-41.7,12.1-41.7,12.1-41.7,12.1L-41.7,12.1z"/>
		</g>
		<g>
			<path class="st2" d="M-37.9,6.8c0-0.1,0-0.3,0-0.4c0-0.1,0-0.2,0.1-0.3c0.1-0.1,0.2-0.1,0.3-0.2c0.1,0,0.3-0.1,0.5-0.1h2.8
				c0.1,0,0.3,0,0.4,0.1c0.1,0.1,0.2,0.1,0.2,0.2c0.1,0.1,0.1,0.2,0.1,0.3c0,0.1,0,0.2,0,0.3v8.7l4.2-4.7c0.2-0.2,0.4-0.3,0.7-0.3
				h3.6c0.4,0,0.6,0.2,0.6,0.5c0,0.1,0,0.2,0,0.2c0,0.1-0.1,0.1-0.2,0.2l-4.9,5.1l6.1,7.8h0c0.1,0.1,0.2,0.2,0.2,0.3
				c0,0.1,0.1,0.2,0.1,0.3c0,0.2,0,0.3-0.1,0.4c-0.1,0.1-0.2,0.1-0.4,0.1h-4c-0.1,0-0.3-0.1-0.4-0.2c-0.1-0.1-0.2-0.3-0.4-0.5
				l-3.9-5.5l-1.3,1.4v3.8c0,0.1,0,0.1,0,0.2c0,0.1-0.1,0.2-0.1,0.3c-0.1,0.1-0.1,0.2-0.2,0.3c-0.1,0.1-0.2,0.1-0.4,0.1h-3
				c-0.1,0-0.3,0-0.4-0.1c-0.1-0.1-0.2-0.2-0.2-0.3c-0.1-0.1-0.1-0.2-0.1-0.3c0-0.1,0-0.1,0-0.1V6.8z"/>
			<path class="st1" d="M-23.5,27.2h-4c-0.6,0-1.1-0.2-1.6-0.6c-0.2-0.2-0.5-0.5-0.7-0.8l-1.9-2.6v1.3c0,0.2,0,0.4-0.1,0.6
				c-0.1,0.3-0.2,0.6-0.3,0.9c-0.2,0.3-0.4,0.6-0.8,0.8c-0.4,0.3-0.9,0.4-1.4,0.4h-3c-0.5,0-1-0.2-1.4-0.5c-0.3-0.2-0.5-0.5-0.7-0.8
				c-0.1-0.2-0.2-0.4-0.3-0.7c-0.1-0.2-0.1-0.4-0.1-0.7V6.8c0-0.2,0-0.3,0-0.5c0-0.5,0.2-0.9,0.5-1.2c0.3-0.4,0.7-0.7,1.1-0.8
				c0.3-0.1,0.7-0.2,1.1-0.2h2.8c0.4,0,0.8,0.1,1.2,0.3c0.3,0.2,0.6,0.4,0.9,0.7c0.2,0.3,0.4,0.6,0.4,1c0,0.2,0.1,0.4,0.1,0.6v4
				l1.1-1.2c0.5-0.6,1.3-0.9,2.1-0.9h3.6c1.6,0,2.5,1.2,2.5,2.3c0,0.4-0.1,0.7-0.2,1c-0.1,0.2-0.2,0.4-0.4,0.6c0,0,0,0.1-0.1,0.1
				l-3.8,4l5.1,6.6c0,0,0.1,0.1,0.1,0.2c0.1,0.2,0.3,0.4,0.3,0.6c0.1,0.3,0.2,0.7,0.2,1c0,0.8-0.3,1.5-0.9,1.9
				C-22.4,27-22.9,27.2-23.5,27.2z M-24.5,25.6C-24.5,25.6-24.5,25.6-24.5,25.6C-24.5,25.6-24.5,25.6-24.5,25.6z M-35.2,24.4
				C-35.2,24.4-35.2,24.4-35.2,24.4L-35.2,24.4z M-26.9,23.5h0.8l-4.7-6c-0.6-0.7-0.5-1.7,0.1-2.4l2.9-3h-0.4l-4,4.5
				c-0.5,0.6-1.3,0.8-2,0.5c-0.7-0.3-1.2-0.9-1.2-1.7V7.7h-0.9v15.8h0.9v-2.9c0-0.5,0.2-0.9,0.5-1.3l1.3-1.4
				c0.4-0.4,0.9-0.6,1.4-0.5c0.5,0,1,0.3,1.3,0.8L-26.9,23.5z M-27.8,11.9L-27.8,11.9C-27.8,11.9-27.8,11.9-27.8,11.9z M-37.1,7.7
				L-37.1,7.7L-37.1,7.7z M-36.1,6.6C-36.1,6.6-36.1,6.6-36.1,6.6C-36.1,6.6-36.1,6.6-36.1,6.6z"/>
		</g>
		<g>
			<path class="st2" d="M-21.3,5.9c0-0.3,0.1-0.5,0.2-0.7C-21,5.1-20.8,5-20.5,5h2.7c0.3,0,0.5,0.1,0.6,0.2c0.2,0.1,0.2,0.4,0.2,0.7
				v2.2c0,0.1,0,0.2-0.1,0.3c0,0.1-0.1,0.2-0.2,0.3c-0.1,0.1-0.2,0.2-0.3,0.2c-0.1,0.1-0.2,0.1-0.4,0.1h-2.7c-0.6,0-0.8-0.3-0.8-1
				V5.9z M-21.3,11.7c0-0.2,0.1-0.5,0.2-0.6c0.1-0.2,0.4-0.3,0.6-0.3h2.6c0.1,0,0.2,0,0.3,0.1c0.1,0,0.2,0.1,0.3,0.2
				c0.1,0.1,0.2,0.2,0.2,0.3c0.1,0.1,0.1,0.2,0.1,0.4v12.8c0,0.3-0.1,0.5-0.2,0.7c-0.2,0.1-0.4,0.2-0.7,0.2h-2.6
				c-0.6,0-0.8-0.3-0.8-0.9V11.7z"/>
			<path class="st1" d="M-17.8,27.2h-2.6c-1.6,0-2.7-1.1-2.7-2.7V11.7c0-0.6,0.2-1.3,0.6-1.7c-0.4-0.5-0.6-1.1-0.6-1.8V5.9
				c0-1,0.4-1.6,0.8-2c0.3-0.3,0.9-0.7,1.9-0.7h2.7c0.7,0,1.3,0.2,1.8,0.6c0.4,0.3,0.9,1,0.9,2.1v2.2c0,0.3-0.1,0.6-0.2,1
				c-0.1,0.3-0.2,0.5-0.4,0.8c0,0,0,0.1-0.1,0.1c0.1,0.1,0.2,0.3,0.3,0.4c0.2,0.4,0.4,0.8,0.4,1.3v12.8c0,1-0.4,1.6-0.8,2
				C-16.3,26.8-16.9,27.2-17.8,27.2z M-19.5,23.5h0.8V12.6h-0.8V23.5z M-19.5,7.3h0.8V6.8h-0.8V7.3z"/>
		</g>
		<g>
			<path class="st2" d="M-13.8,10.6c0.1-0.1,0.2-0.1,0.3-0.2c0.1,0,0.2,0,0.3,0h1.8c0.1,0,0.3,0,0.4,0.1c0.1,0.1,0.2,0.1,0.3,0.2
				c0.1,0.1,0.1,0.2,0.2,0.3c0,0.1,0.1,0.2,0.1,0.3l0.2,1c0.1-0.2,0.3-0.5,0.6-0.8c0.3-0.3,0.6-0.5,1-0.7c0.4-0.2,0.8-0.4,1.4-0.5
				c0.5-0.1,1.1-0.2,1.7-0.2c0.9,0,1.7,0.2,2.4,0.5c0.7,0.3,1.3,0.8,1.8,1.4c0.5,0.6,0.9,1.3,1.1,2.1C0,15,0.1,15.8,0.1,16.7v7.7
				c0,0.3-0.1,0.5-0.2,0.7c-0.1,0.2-0.3,0.2-0.6,0.2h-2.7c-0.3,0-0.6-0.1-0.7-0.2c-0.1-0.1-0.2-0.3-0.2-0.7v-7.7
				c0-0.3-0.1-0.7-0.2-1c-0.2-0.3-0.4-0.6-0.6-0.8c-0.3-0.2-0.5-0.4-0.9-0.5c-0.3-0.1-0.6-0.2-1-0.2c-0.3,0-0.6,0.1-0.9,0.2
				c-0.3,0.1-0.6,0.3-0.8,0.5c-0.2,0.2-0.5,0.5-0.6,0.8c-0.2,0.3-0.3,0.6-0.3,1v7.7c0,0.1,0,0.3-0.1,0.4c-0.1,0.1-0.1,0.2-0.2,0.3
				c-0.1,0.1-0.2,0.1-0.3,0.1c-0.1,0-0.2,0-0.3,0h-2.7c-0.3,0-0.6-0.1-0.7-0.2c-0.1-0.2-0.2-0.4-0.2-0.7V11.2c0-0.1,0-0.3,0.1-0.4
				C-14,10.7-13.9,10.6-13.8,10.6L-13.8,10.6z"/>
			<path class="st1" d="M-0.7,27.2h-2.7c-0.8,0-1.4-0.2-1.9-0.6c-0.5-0.5-0.8-1.1-0.8-2v-7.7c0-0.1,0-0.1,0-0.1
				c-0.1-0.1-0.1-0.2-0.2-0.3c-0.1-0.1-0.2-0.2-0.3-0.2c-0.1,0-0.2-0.1-0.3-0.1c0,0-0.1,0-0.2,0c-0.1,0-0.2,0.1-0.3,0.2
				c-0.1,0.1-0.2,0.2-0.3,0.3c0,0.1,0,0.1-0.1,0.2v7.6c0,0.4-0.1,0.7-0.2,1.1c-0.2,0.5-0.5,0.9-0.9,1.2c0,0-0.1,0-0.1,0.1
				c-0.3,0.2-0.5,0.3-0.8,0.3c-0.2,0.1-0.5,0.1-0.8,0.1h-2.7c-1.1,0-1.7-0.5-2.1-0.8c-0.3-0.3-0.7-1-0.7-1.9V11.2
				c0-0.5,0.1-0.9,0.3-1.3c0.1-0.2,0.3-0.4,0.4-0.6c0.1-0.1,0.1-0.1,0.2-0.2c0.3-0.3,0.7-0.5,1.1-0.6c0.2,0,0.5-0.1,0.7-0.1h1.8
				c0.4,0,0.8,0.1,1.2,0.3C-10,9-9.7,9.1-9.6,9.3c0,0,0,0,0,0C-9,9-8.4,8.8-7.8,8.6c0.7-0.2,1.4-0.3,2.2-0.3c1.2,0,2.2,0.2,3.2,0.7
				c0.9,0.5,1.7,1.1,2.4,1.9c0.6,0.8,1.1,1.7,1.4,2.7c0.3,1,0.5,2,0.5,3.1v7.7c0,0.7-0.2,1.4-0.6,1.9C0.8,26.9,0.1,27.2-0.7,27.2z
				 M-2.5,23.5h0.8v-6.8c0-0.7-0.1-1.4-0.3-2c-0.2-0.6-0.4-1.1-0.8-1.5c-0.3-0.4-0.7-0.7-1.2-0.9C-4.5,12.1-5,12-5.6,12
				c-0.5,0-0.9,0-1.2,0.1c-0.4,0.1-0.7,0.2-1,0.4c-0.1,0.1-0.2,0.1-0.3,0.2c0.9-0.3,1.9-0.2,2.8,0.2c0.5,0.2,1,0.5,1.4,0.9
				c0.4,0.4,0.7,0.8,1,1.3c0.3,0.6,0.4,1.2,0.4,1.8V23.5z M-12.3,23.5h0.9v-6.7c0,0,0-0.1,0-0.1c0-0.6,0.2-1.2,0.5-1.8
				c0.2-0.3,0.3-0.5,0.5-0.8c0,0,0,0-0.1,0c-0.8-0.1-1.4-0.6-1.6-1.4l-0.1-0.6h-0.2V23.5z"/>
		</g>
	</g>
	<g class="st0">
		<path class="st2" d="M-37.9,6.8c0-0.1,0-0.3,0-0.4c0-0.1,0-0.2,0.1-0.3c0.1-0.1,0.2-0.1,0.3-0.2c0.1,0,0.3-0.1,0.5-0.1h2.8
			c0.1,0,0.3,0,0.4,0.1c0.1,0.1,0.2,0.1,0.2,0.2c0.1,0.1,0.1,0.2,0.1,0.3c0,0.1,0,0.2,0,0.3v8.7l4.2-4.7c0.2-0.2,0.4-0.3,0.7-0.3
			h3.6c0.4,0,0.6,0.2,0.6,0.5c0,0.1,0,0.2,0,0.2c0,0.1-0.1,0.1-0.2,0.2l-4.9,5.1l6.1,7.8h0c0.1,0.1,0.2,0.2,0.2,0.3
			c0,0.1,0.1,0.2,0.1,0.3c0,0.2,0,0.3-0.1,0.4c-0.1,0.1-0.2,0.1-0.4,0.1h-4c-0.1,0-0.3-0.1-0.4-0.2c-0.1-0.1-0.2-0.3-0.4-0.5
			l-3.9-5.5l-1.3,1.4v3.8c0,0.1,0,0.1,0,0.2c0,0.1-0.1,0.2-0.1,0.3c-0.1,0.1-0.1,0.2-0.2,0.3c-0.1,0.1-0.2,0.1-0.4,0.1h-3
			c-0.1,0-0.3,0-0.4-0.1c-0.1-0.1-0.2-0.2-0.2-0.3c-0.1-0.1-0.1-0.2-0.1-0.3c0-0.1,0-0.1,0-0.1V6.8z"/>
	</g>
	<g class="st0">
		<path class="st2" d="M-21.3,5.9c0-0.3,0.1-0.5,0.2-0.7C-21,5.1-20.8,5-20.5,5h2.7c0.3,0,0.5,0.1,0.6,0.2c0.2,0.1,0.2,0.4,0.2,0.7
			v2.2c0,0.1,0,0.2-0.1,0.3c0,0.1-0.1,0.2-0.2,0.3c-0.1,0.1-0.2,0.2-0.3,0.2c-0.1,0.1-0.2,0.1-0.4,0.1h-2.7c-0.6,0-0.8-0.3-0.8-1
			V5.9z M-21.3,11.7c0-0.2,0.1-0.5,0.2-0.6c0.1-0.2,0.4-0.3,0.6-0.3h2.6c0.1,0,0.2,0,0.3,0.1c0.1,0,0.2,0.1,0.3,0.2
			c0.1,0.1,0.2,0.2,0.2,0.3c0.1,0.1,0.1,0.2,0.1,0.4v12.8c0,0.3-0.1,0.5-0.2,0.7c-0.2,0.1-0.4,0.2-0.7,0.2h-2.6
			c-0.6,0-0.8-0.3-0.8-0.9V11.7z"/>
	</g>
	<g class="st0">
		<path class="st2" d="M-13.8,10.6c0.1-0.1,0.2-0.1,0.3-0.2c0.1,0,0.2,0,0.3,0h1.8c0.1,0,0.3,0,0.4,0.1c0.1,0.1,0.2,0.1,0.3,0.2
			c0.1,0.1,0.1,0.2,0.2,0.3c0,0.1,0.1,0.2,0.1,0.3l0.2,1c0.1-0.2,0.3-0.5,0.6-0.8c0.3-0.3,0.6-0.5,1-0.7c0.4-0.2,0.8-0.4,1.4-0.5
			c0.5-0.1,1.1-0.2,1.7-0.2c0.9,0,1.7,0.2,2.4,0.5c0.7,0.3,1.3,0.8,1.8,1.4c0.5,0.6,0.9,1.3,1.1,2.1C0,15,0.1,15.8,0.1,16.7v7.7
			c0,0.3-0.1,0.5-0.2,0.7c-0.1,0.2-0.3,0.2-0.6,0.2h-2.7c-0.3,0-0.6-0.1-0.7-0.2c-0.1-0.1-0.2-0.3-0.2-0.7v-7.7c0-0.3-0.1-0.7-0.2-1
			c-0.2-0.3-0.4-0.6-0.6-0.8c-0.3-0.2-0.5-0.4-0.9-0.5c-0.3-0.1-0.6-0.2-1-0.2c-0.3,0-0.6,0.1-0.9,0.2c-0.3,0.1-0.6,0.3-0.8,0.5
			c-0.2,0.2-0.5,0.5-0.6,0.8c-0.2,0.3-0.3,0.6-0.3,1v7.7c0,0.1,0,0.3-0.1,0.4c-0.1,0.1-0.1,0.2-0.2,0.3c-0.1,0.1-0.2,0.1-0.3,0.1
			c-0.1,0-0.2,0-0.3,0h-2.7c-0.3,0-0.6-0.1-0.7-0.2c-0.1-0.2-0.2-0.4-0.2-0.7V11.2c0-0.1,0-0.3,0.1-0.4
			C-14,10.7-13.9,10.6-13.8,10.6L-13.8,10.6z"/>
	</g>
	<g class="st0">
		<path class="st2" d="M2.5,17.9c0-0.7,0.1-1.4,0.3-2.1c0.2-0.7,0.4-1.3,0.8-1.9c0.3-0.6,0.7-1.1,1.2-1.6c0.5-0.5,1-0.9,1.6-1.2
			c0.6-0.3,1.2-0.6,1.9-0.8c0.7-0.2,1.4-0.3,2.1-0.3c1.1,0,2.1,0.2,3,0.6c0.9,0.4,1.8,0.9,2.5,1.6c0.7,0.7,1.2,1.5,1.7,2.5
			c0.4,0.9,0.6,2,0.6,3.1c0,0.7-0.1,1.4-0.3,2.1c-0.2,0.7-0.4,1.3-0.8,1.9c-0.3,0.6-0.7,1.1-1.2,1.6c-0.5,0.5-1,0.9-1.6,1.2
			c-0.6,0.3-1.2,0.6-1.8,0.8c-0.7,0.2-1.3,0.3-2.1,0.3c-0.7,0-1.4-0.1-2.1-0.3c-0.7-0.2-1.3-0.4-1.9-0.8c-0.6-0.3-1.1-0.7-1.6-1.2
			c-0.5-0.5-0.9-1-1.2-1.6c-0.3-0.6-0.6-1.2-0.8-1.9C2.6,19.3,2.5,18.6,2.5,17.9z M6.8,17.9c0,0.5,0.1,1,0.2,1.5
			c0.2,0.5,0.4,0.8,0.7,1.2c0.3,0.3,0.7,0.6,1.1,0.8c0.4,0.2,0.9,0.3,1.4,0.3c0.5,0,1-0.1,1.4-0.3c0.4-0.2,0.8-0.5,1.1-0.8
			c0.3-0.3,0.5-0.7,0.7-1.2c0.2-0.5,0.2-0.9,0.2-1.5c0-0.5-0.1-1-0.2-1.4c-0.2-0.5-0.4-0.9-0.7-1.2c-0.3-0.3-0.6-0.6-1.1-0.8
			c-0.4-0.2-0.9-0.3-1.4-0.3c-0.5,0-1,0.1-1.4,0.3c-0.4,0.2-0.8,0.5-1.1,0.8C7.4,15.6,7.2,16,7,16.4C6.9,16.9,6.8,17.4,6.8,17.9z"/>
	</g>
	<g class="st0">
		<g>
			<path class="st4" d="M-36.5-5.8c0.5,0,1,0.1,1.5,0.1c9.4,0.9,18.5,4.1,26.5,9.1c-7.9,0.6-16,0.8-24.1,0.5L-36.5-5.8z"/>
		</g>
		<g>
			<ellipse class="st4" cx="-54.3" cy="4.6" rx="2.4" ry="0.6"/>
		</g>
		<g>
			<path class="st4" d="M-62.8-2c7.5-2.8,15.5-4.2,23.5-4c0.4,1.9,1.6,7.6,2,9.6C-45.2,3.2-53,2.2-60.7,0.8C-61.4-0.1-62-1.1-62.8-2
				z"/>
		</g>
		<g>
			<path class="st4" d="M24.9,16.6c0-0.1,0-0.3,0-0.4l3.2-0.2c-0.1,0.2-0.2,0.5-0.2,0.7c0,0.2,0,0.3,0,0.4
				C27.4,17.1,26,16.8,24.9,16.6z"/>
		</g>
		<g>
			<path class="st4" d="M28.2,16c-0.7-0.1-2.2-0.4-3.2-0.5c0-0.1,0-0.2,0.1-0.3l3.3-0.2c0,0-1.6-0.3-2.9-0.5
				c0.3-0.4,0.9-0.5,1.4-0.6c0.5-0.1,1.1-0.1,1.6-0.2c0.4,1,0.1,1.6-0.2,2.1C28.3,15.9,28.2,15.9,28.2,16z"/>
		</g>
		<g>
			<path class="st4" d="M27.9,19.6c0,0-1.3-0.2-2.5-0.4c-0.1-0.2-0.2-0.4-0.3-0.6l2.9-0.1c0,0.2,0,0.4,0,0.6c0,0.7,0.1,1.2,0.3,1.6
				c-0.9-0.2-1.7-0.4-2.4-1L27.9,19.6z"/>
		</g>
		<g>
			<path class="st4" d="M25.4,10.1c0.3,0.4,0.6,0.7,0.8,1.1c-3.9,0.2-7.9-1.5-10.6-4.3c0.6,0,1.3,0,1.9,0c3.3,0.8,6.1,1.9,7.7,3.1
				C25.3,10.1,25.3,10.1,25.4,10.1z"/>
		</g>
		<g>
			<path class="st4" d="M28,17.3c0,0.1,0,0.2,0,1.1c-0.5-0.1-1.9-0.3-3-0.5c0-0.2,0-0.3,0-0.5L28,17.3C28,17.3,28,17.3,28,17.3z"/>
		</g>
		<g>
			<path class="st4" d="M-26.2,5.9c0,0.3-1.1,0.6-2.4,0.6c-1.3,0-2.4-0.3-2.4-0.6c0-0.3,1.1-0.6,2.4-0.6
				C-27.3,5.3-26.2,5.5-26.2,5.9z"/>
		</g>
		<g>
			<path class="st4" d="M-7.8,2.1c-2.1-0.7-4-1.9-6-2.9c-2.2-1.2-4.5-2.4-6.8-3.4c3.1,0.9,5.6,2.2,8.5,3.6c2.1,1,4.4,2.1,7.3,3.4
				C-5.8,2.6-6.8,2.4-7.8,2.1z"/>
		</g>
		<g>
			<path class="st4" d="M25.3,10.1c-1.6-1.3-4.5-2.3-7.7-3.1c2.2,0.2,4.4,0.8,6.3,2c0.5,0.3,1,0.8,1.5,1.2
				C25.3,10.1,25.3,10.1,25.3,10.1z"/>
		</g>
		<g>
			<path class="st4" d="M-83.9,3.8c0.6-0.2,1.3-0.2,1.9-0.1c1.1,0.2,2.1,0.9,2.6,1.9c0.1,0.2-0.2,0.4-0.3,0.6
				c-0.2,0.2-0.4,0.3-0.7,0.3c-0.7,0.1-1.6-0.2-2-0.7c-0.4-0.5-1-0.6-1.7-0.6C-84,4.7-84,4.2-83.9,3.8z"/>
		</g>
		<g>
			<path class="st3" d="M10.2,8.5c5.1,0,9.5,4.4,9.2,9.5c-0.4-7.8-9.7-11.7-15.4-6.3c-1.7,1.6-2.7,3.9-2.9,6.3c0,0,0,0,0,0
				C0.7,12.8,5.1,8.4,10.2,8.5z"/>
		</g>
	</g>
</g>
</svg>
